<svg id="图层_1" data-name="图层 1" xmlns="http://www.w3.org/2000/svg" viewBox="0 0 34.68 35.06">
    <defs>
        <style>.cls-1{fill:#22e8e2;}</style>
    </defs>
    <title>面积量算-36X36px</title>
    <path class="cls-1" d="M-453.44,118.9h-31.4l-.1-31.8h9.4v22.4h22v9.4Zm-30.4-1h29.4v-7.4h-22V88.1h-7.5Z"
          transform="translate(484.94 -83.84)"/>
    <rect class="cls-1" x="4.4" y="10.46" width="4.3" height="0.6"/>
    <rect class="cls-1" x="5.7" y="5.36" width="3" height="0.5"/>
    <rect class="cls-1" x="5.7" y="6.66" width="3" height="0.5"/>
    <rect class="cls-1" x="5.7" y="7.86" width="3" height="0.5"/>
    <rect class="cls-1" x="5.7" y="9.16" width="3" height="0.5"/>
    <rect class="cls-1" x="4.4" y="16.86" width="4.3" height="0.6"/>
    <rect class="cls-1" x="5.7" y="11.76" width="3" height="0.5"/>
    <rect class="cls-1" x="5.7" y="13.06" width="3" height="0.5"/>
    <rect class="cls-1" x="5.7" y="14.36" width="3" height="0.5"/>
    <rect class="cls-1" x="5.7" y="15.56" width="3" height="0.5"/>
    <rect class="cls-1" x="4.4" y="23.26" width="4.3" height="0.6"/>
    <rect class="cls-1" x="5.7" y="18.16" width="3" height="0.5"/>
    <rect class="cls-1" x="5.7" y="19.46" width="3" height="0.5"/>
    <rect class="cls-1" x="5.7" y="20.76" width="3" height="0.5"/>
    <rect class="cls-1" x="5.7" y="22.06" width="3" height="0.5"/>
    <rect class="cls-1" x="5.7" y="24.56" width="3" height="0.5"/>
    <rect class="cls-1" x="5.7" y="25.86" width="3" height="0.5"/>
    <rect class="cls-1" x="13.5" y="26.56" width="0.6" height="4.3"/>
    <rect class="cls-1" x="8.4" y="26.56" width="0.5" height="3"/>
    <rect class="cls-1" x="9.7" y="26.56" width="0.5" height="3"/>
    <rect class="cls-1" x="11" y="26.56" width="0.5" height="3"/>
    <rect class="cls-1" x="12.3" y="26.56" width="0.5" height="3"/>
    <rect class="cls-1" x="19.9" y="26.56" width="0.6" height="4.3"/>
    <rect class="cls-1" x="14.9" y="26.56" width="0.5" height="3"/>
    <rect class="cls-1" x="16.1" y="26.56" width="0.5" height="3"/>
    <rect class="cls-1" x="17.4" y="26.56" width="0.5" height="3"/>
    <rect class="cls-1" x="18.7" y="26.56" width="0.5" height="3"/>
    <rect class="cls-1" x="26.4" y="26.56" width="0.6" height="4.3"/>
    <rect class="cls-1" x="21.3" y="26.56" width="0.5" height="3"/>
    <rect class="cls-1" x="22.6" y="26.56" width="0.5" height="3"/>
    <rect class="cls-1" x="23.8" y="26.56" width="0.5" height="3"/>
    <rect class="cls-1" x="25.1" y="26.56" width="0.5" height="3"/>
    <rect class="cls-1" x="27.7" y="26.56" width="0.5" height="3"/>
    <rect class="cls-1" x="29" y="26.56" width="0.5" height="3"/>
    <path class="cls-1" d="M-458.94,106.3l-.2-.1-14.1-4.4,3.2-16.4,18.3,5.8-.2.2Zm-13.8-4.9,13.5,4.2,6.7-14.2-17.2-5.4Z"
          transform="translate(484.94 -83.84)"/>
    <rect class="cls-1" x="-471.12" y="84.21" width="2.8" height="2.8"
          transform="translate(80.39 -471.22) rotate(-71.83)"/>
    <rect class="cls-1" x="-453.42" y="89.78" width="2.8" height="2.8"
          transform="translate(87.27 -450.57) rotate(-71.83)"/>
    <rect class="cls-1" x="-474.23" y="100" width="2.8" height="2.8" transform="translate(7.86 -466.01) rotate(-78.4)"/>
    <rect class="cls-1" x="-460.63" y="104.48" width="2.8" height="2.8"
          transform="translate(113.17 -441.05) rotate(-66.32)"/>
</svg>
