<svg id="图层_1" data-name="图层 1" xmlns="http://www.w3.org/2000/svg" viewBox="0 0 214.75 214.33">
    <defs>
        <style>.cls-1{fill:#fff;}</style>
    </defs>
    <title>复制</title>
    <path class="cls-1"
          d="M-72,316.91H-188.67a25.07,25.07,0,0,0-25,25V458.58a25.07,25.07,0,0,0,25,25H-72a25.07,25.07,0,0,0,25-25V341.91A25.07,25.07,0,0,0-72,316.91Zm8.33,141.67A8.45,8.45,0,0,1-72,466.91H-188.67a8.45,8.45,0,0,1-8.33-8.33V341.91a8.45,8.45,0,0,1,8.33-8.33H-72a8.45,8.45,0,0,1,8.33,8.33Zm-173.08-39.33h0a8.36,8.36,0,0,1-8.33-8.33V294.25a8.36,8.36,0,0,1,8.33-8.33h116.67a8.36,8.36,0,0,1,8.33,8.33,8.3,8.3,0,0,0,8.3,8.3h.07a8.3,8.3,0,0,0,8.3-8.3,25.07,25.07,0,0,0-25-25H-236.75a25.07,25.07,0,0,0-25,25V410.92a25.07,25.07,0,0,0,25,25h0a8.33,8.33,0,0,0,8.33-8.33h0A8.33,8.33,0,0,0-236.75,419.25ZM-97,391.91h-25v-25a8.36,8.36,0,0,0-8.33-8.33,8.36,8.36,0,0,0-8.33,8.33v25h-25a8.36,8.36,0,0,0-8.33,8.33,8.36,8.36,0,0,0,8.33,8.33h25v25a8.36,8.36,0,0,0,8.33,8.33,8.36,8.36,0,0,0,8.33-8.33v-25h25a8.36,8.36,0,0,0,8.33-8.33A8.36,8.36,0,0,0-97,391.91Z"
          transform="translate(261.75 -269.25)"/>
</svg>
