<svg id="图层_1" data-name="图层 1" xmlns="http://www.w3.org/2000/svg" viewBox="0 0 34 35.1">
    <defs>
        <style>.cls-1{fill:#22e8e2;}</style>
    </defs>
    <title>距离量算-36X36px</title>
    <path class="cls-1" d="M-276.3,151.69l-7-7,21.6-21.5,7,7Zm-5.5-7,5.6,5.6,20-20.1-5.6-5.6Z"
          transform="translate(283.3 -123.19)"/>
    <path class="cls-1"
          d="M-259.6,134.69c-.1,0-.2,0-.2-.1l-2.8-2.8a.3.3,0,0,1,0-.4.3.3,0,0,1,.4,0l2.8,2.8a.3.3,0,0,1,0,.4C-259.5,134.59-259.5,134.69-259.6,134.69Z"
          transform="translate(283.3 -123.19)"/>
    <path class="cls-1"
          d="M-256.3,131.29c-.1,0-.1,0-.2-.1l-1.9-1.9a.3.3,0,0,1,0-.4.3.3,0,0,1,.4,0l1.9,1.9a.3.3,0,0,1,0,.4C-256.1,131.29-256.2,131.29-256.3,131.29Z"
          transform="translate(283.3 -123.19)"/>
    <path class="cls-1"
          d="M-257.1,132.09c-.1,0-.1,0-.2-.1l-1.9-1.9a.3.3,0,0,1,0-.4.3.3,0,0,1,.4,0l1.9,2a.3.3,0,0,1,0,.4Z"
          transform="translate(283.3 -123.19)"/>
    <path class="cls-1"
          d="M-257.9,133c-.1,0-.1,0-.2-.1L-260,131a.3.3,0,0,1,0-.4.3.3,0,0,1,.4,0l1.9,1.9a.3.3,0,0,1,0,.4A.35.35,0,0,0-257.9,133Z"
          transform="translate(283.3 -123.19)"/>
    <path class="cls-1"
          d="M-258.8,133.79c-.1,0-.1,0-.2-.1l-1.9-1.9a.3.3,0,0,1,0-.4.3.3,0,0,1,.4,0l1.9,1.9a.3.3,0,0,1,0,.4C-258.6,133.79-258.7,133.79-258.8,133.79Z"
          transform="translate(283.3 -123.19)"/>
    <path class="cls-1"
          d="M-263.8,138.79c-.1,0-.2,0-.2-.1l-2.8-2.8a.3.3,0,0,1,0-.4.3.3,0,0,1,.4,0l2.8,2.8a.3.3,0,0,1,0,.4C-263.6,138.79-263.7,138.79-263.8,138.79Z"
          transform="translate(283.3 -123.19)"/>
    <path class="cls-1"
          d="M-260.4,135.49c-.1,0-.1,0-.2-.1l-2-2a.3.3,0,0,1,0-.4.3.3,0,0,1,.4,0l1.9,1.9a.3.3,0,0,1,0,.4A.35.35,0,0,1-260.4,135.49Z"
          transform="translate(283.3 -123.19)"/>
    <path class="cls-1"
          d="M-261.3,136.29c-.1,0-.1,0-.2-.1l-1.9-1.9a.3.3,0,0,1,0-.4.3.3,0,0,1,.4,0l1.9,1.9a.3.3,0,0,1,0,.4C-261.1,136.29-261.2,136.29-261.3,136.29Z"
          transform="translate(283.3 -123.19)"/>
    <path class="cls-1"
          d="M-262.1,137.09c-.1,0-.1,0-.2-.1l-1.9-1.9a.3.3,0,0,1,0-.4.3.3,0,0,1,.4,0l1.9,1.9a.3.3,0,0,1,0,.4C-262,137.09-262,137.09-262.1,137.09Z"
          transform="translate(283.3 -123.19)"/>
    <path class="cls-1"
          d="M-262.9,138c-.1,0-.1,0-.2-.1L-265,136a.3.3,0,0,1,0-.4.3.3,0,0,1,.4,0l1.9,1.9a.3.3,0,0,1,0,.4A.35.35,0,0,0-262.9,138Z"
          transform="translate(283.3 -123.19)"/>
    <path class="cls-1"
          d="M-267.9,143c-.1,0-.2,0-.2-.1l-2.8-2.8a.3.3,0,0,1,0-.4.3.3,0,0,1,.4,0l2.8,2.8a.3.3,0,0,1,0,.4A.31.31,0,0,1-267.9,143Z"
          transform="translate(283.3 -123.19)"/>
    <path class="cls-1"
          d="M-264.6,139.59c-.1,0-.1,0-.2-.1l-1.9-1.9a.3.3,0,0,1,0-.4.3.3,0,0,1,.4,0l1.9,1.9a.3.3,0,0,1,0,.4C-264.5,139.59-264.5,139.59-264.6,139.59Z"
          transform="translate(283.3 -123.19)"/>
    <path class="cls-1"
          d="M-265.4,140.49c-.1,0-.1,0-.2-.1l-2-2a.3.3,0,0,1,0-.4.3.3,0,0,1,.4,0l1.9,1.9a.3.3,0,0,1,0,.4A.35.35,0,0,1-265.4,140.49Z"
          transform="translate(283.3 -123.19)"/>
    <path class="cls-1"
          d="M-266.3,141.29c-.1,0-.1,0-.2-.1l-1.9-1.9a.3.3,0,0,1,0-.4.3.3,0,0,1,.4,0l1.9,1.9a.3.3,0,0,1,0,.4C-266.1,141.29-266.2,141.29-266.3,141.29Z"
          transform="translate(283.3 -123.19)"/>
    <path class="cls-1"
          d="M-267.1,142.09c-.1,0-.1,0-.2-.1l-1.9-1.9a.3.3,0,0,1,0-.4.3.3,0,0,1,.4,0l1.9,1.9a.3.3,0,0,1,0,.4C-267,142.09-267,142.09-267.1,142.09Z"
          transform="translate(283.3 -123.19)"/>
    <path class="cls-1"
          d="M-272.1,147.19c-.1,0-.2,0-.2-.1l-2.8-2.8a.3.3,0,0,1,0-.4.3.3,0,0,1,.4,0l2.8,2.8a.3.3,0,0,1,0,.4A.35.35,0,0,1-272.1,147.19Z"
          transform="translate(283.3 -123.19)"/>
    <path class="cls-1"
          d="M-268.8,143.79c-.1,0-.1,0-.2-.1l-1.9-1.9a.3.3,0,0,1,0-.4.3.3,0,0,1,.4,0l1.9,1.9a.3.3,0,0,1,0,.4C-268.6,143.79-268.7,143.79-268.8,143.79Z"
          transform="translate(283.3 -123.19)"/>
    <path class="cls-1"
          d="M-269.6,144.59c-.1,0-.1,0-.2-.1l-1.9-1.9a.3.3,0,0,1,0-.4.3.3,0,0,1,.4,0l1.9,1.9a.3.3,0,0,1,0,.4C-269.5,144.59-269.5,144.59-269.6,144.59Z"
          transform="translate(283.3 -123.19)"/>
    <path class="cls-1"
          d="M-270.4,145.39c-.1,0-.1,0-.2-.1l-1.9-1.9a.3.3,0,0,1,0-.4.3.3,0,0,1,.4,0l1.9,1.9a.3.3,0,0,1,0,.4A.31.31,0,0,1-270.4,145.39Z"
          transform="translate(283.3 -123.19)"/>
    <path class="cls-1"
          d="M-271.3,146.29c-.1,0-.1,0-.2-.1l-1.9-1.9a.3.3,0,0,1,0-.4.3.3,0,0,1,.4,0l1.9,1.9a.3.3,0,0,1,0,.4C-271.1,146.29-271.2,146.29-271.3,146.29Z"
          transform="translate(283.3 -123.19)"/>
    <path class="cls-1"
          d="M-272.9,147.89c-.1,0-.1,0-.2-.1l-1.9-1.9a.3.3,0,0,1,0-.4.3.3,0,0,1,.4,0l1.9,1.9a.3.3,0,0,1,0,.4A.31.31,0,0,1-272.9,147.89Z"
          transform="translate(283.3 -123.19)"/>
    <path class="cls-1"
          d="M-273.8,148.79c-.1,0-.1,0-.2-.1l-1.9-1.9a.3.3,0,0,1,0-.4.3.3,0,0,1,.4,0l1.9,1.9a.3.3,0,0,1,0,.4C-273.6,148.79-273.7,148.79-273.8,148.79Z"
          transform="translate(283.3 -123.19)"/>
    <path class="cls-1"
          d="M-274.6,149.59c-.1,0-.1,0-.2-.1l-1.9-1.9a.3.3,0,0,1,0-.4.3.3,0,0,1,.4,0l1.9,1.9a.3.3,0,0,1,0,.4C-274.5,149.59-274.5,149.59-274.6,149.59Z"
          transform="translate(283.3 -123.19)"/>
    <path class="cls-1"
          d="M-275.4,150.39c-.1,0-.1,0-.2-.1l-1.9-1.9a.3.3,0,0,1,0-.4.3.3,0,0,1,.4,0l1.9,1.9a.3.3,0,0,1,0,.4A.31.31,0,0,1-275.4,150.39Z"
          transform="translate(283.3 -123.19)"/>
    <path class="cls-1" d="M-269.7,158.29l-3-3,3-3,3,3Zm-2.2-3,2.2,2.2,2.2-2.2-2.2-2.2Z"
          transform="translate(283.3 -123.19)"/>
    <path class="cls-1" d="M-252.3,140.89l-3-3,3-3,3,3Zm-2.2-3.1,2.2,2.2,2.2-2.2-2.2-2.2Z"
          transform="translate(283.3 -123.19)"/>
    <rect class="cls-1" x="-271.76" y="145.82" width="21.4" height="1.5"
          transform="translate(103.2 -264.86) rotate(-45)"/>
</svg>
