<svg id="图层_1" data-name="图层 1" xmlns="http://www.w3.org/2000/svg" viewBox="0 0 34.1 33.7">
    <defs>
        <style>.cls-1{fill:#fff;}</style>
    </defs>
    <title>高度量算-36X36px</title>
    <path class="cls-1" d="M-358.2,93h-10.9V59.29h10.9Zm-9.9-1h8.9V60.29h-8.9Z" transform="translate(369.1 -59.29)"/>
    <path class="cls-1"
          d="M-358.7,66.59h-4.4a.27.27,0,0,1-.3-.3.27.27,0,0,1,.3-.3h4.4a.27.27,0,0,1,.3.3A.32.32,0,0,1-358.7,66.59Z"
          transform="translate(369.1 -59.29)"/>
    <path class="cls-1"
          d="M-358.7,61.39h-3.1c-.1,0-.2-.2-.2-.3a.32.32,0,0,1,.3-.3h3.1a.32.32,0,0,1,.3.3C-358.3,61.29-358.6,61.39-358.7,61.39Z"
          transform="translate(369.1 -59.29)"/>
    <path class="cls-1"
          d="M-358.7,62.69h-3.1c-.1,0-.2-.2-.2-.3a.32.32,0,0,1,.3-.3h3.1a.32.32,0,0,1,.3.3C-358.3,62.59-358.6,62.69-358.7,62.69Z"
          transform="translate(369.1 -59.29)"/>
    <path class="cls-1"
          d="M-358.7,64h-3.1c-.1,0-.2-.1-.2-.3s.1-.2.2-.2h3.1a.32.32,0,0,1,.3.3C-358.4,64-358.6,64-358.7,64Z"
          transform="translate(369.1 -59.29)"/>
    <path class="cls-1"
          d="M-358.7,65.29h-3.1c-.1,0-.2-.1-.2-.3a.27.27,0,0,1,.3-.3h3.1a.32.32,0,0,1,.3.3C-358.3,65.19-358.6,65.29-358.7,65.29Z"
          transform="translate(369.1 -59.29)"/>
    <path class="cls-1"
          d="M-358.7,73.19h-4.4a.27.27,0,0,1-.3-.3.27.27,0,0,1,.3-.3h4.4a.27.27,0,0,1,.3.3A.32.32,0,0,1-358.7,73.19Z"
          transform="translate(369.1 -59.29)"/>
    <path class="cls-1"
          d="M-358.7,67.89h-3.1c-.1,0-.2-.1-.2-.3a.27.27,0,0,1,.3-.3h3.1a.32.32,0,0,1,.3.3C-358.3,67.79-358.6,67.89-358.7,67.89Z"
          transform="translate(369.1 -59.29)"/>
    <path class="cls-1"
          d="M-358.7,69.19h-3.1a.32.32,0,0,1-.3-.3.27.27,0,0,1,.3-.3h3.1a.32.32,0,0,1,.3.3A.32.32,0,0,1-358.7,69.19Z"
          transform="translate(369.1 -59.29)"/>
    <path class="cls-1"
          d="M-358.7,70.49h-3.1a.22.22,0,0,1-.2-.2.32.32,0,0,1,.3-.3h3.1a.32.32,0,0,1,.3.3C-358.3,70.49-358.6,70.49-358.7,70.49Z"
          transform="translate(369.1 -59.29)"/>
    <path class="cls-1"
          d="M-358.7,71.79h-3.1a.32.32,0,0,1-.3-.3.27.27,0,0,1,.3-.3h3.1a.32.32,0,0,1,.3.3A.32.32,0,0,1-358.7,71.79Z"
          transform="translate(369.1 -59.29)"/>
    <path class="cls-1"
          d="M-358.7,79.69h-4.4a.27.27,0,0,1-.3-.3.27.27,0,0,1,.3-.3h4.4a.27.27,0,0,1,.3.3A.32.32,0,0,1-358.7,79.69Z"
          transform="translate(369.1 -59.29)"/>
    <path class="cls-1"
          d="M-358.7,74.39h-3.1a.32.32,0,0,1-.3-.3.27.27,0,0,1,.3-.3h3.1a.32.32,0,0,1,.3.3A.32.32,0,0,1-358.7,74.39Z"
          transform="translate(369.1 -59.29)"/>
    <path class="cls-1"
          d="M-358.7,75.69h-3.1a.22.22,0,0,1-.2-.2.32.32,0,0,1,.3-.3h3.1a.32.32,0,0,1,.3.3C-358.3,75.69-358.6,75.69-358.7,75.69Z"
          transform="translate(369.1 -59.29)"/>
    <path class="cls-1"
          d="M-358.7,77h-3.1a.32.32,0,0,1-.3-.3c0-.2.2-.2.3-.2h3.1a.32.32,0,0,1,.3.3C-358.4,77-358.6,77-358.7,77Z"
          transform="translate(369.1 -59.29)"/>
    <path class="cls-1"
          d="M-358.7,78.39h-3.1a.32.32,0,0,1-.3-.3.27.27,0,0,1,.3-.3h3.1a.32.32,0,0,1,.3.3A.32.32,0,0,1-358.7,78.39Z"
          transform="translate(369.1 -59.29)"/>
    <path class="cls-1"
          d="M-358.7,86.29h-4.4a.27.27,0,0,1-.3-.3.27.27,0,0,1,.3-.3h4.4a.27.27,0,0,1,.3.3A.32.32,0,0,1-358.7,86.29Z"
          transform="translate(369.1 -59.29)"/>
    <path class="cls-1"
          d="M-358.7,81h-3.1a.32.32,0,0,1-.3-.3c0-.2.2-.2.3-.2h3.1a.32.32,0,0,1,.3.3C-358.4,81-358.6,81-358.7,81Z"
          transform="translate(369.1 -59.29)"/>
    <path class="cls-1"
          d="M-358.7,82.29h-3.1a.32.32,0,0,1-.3-.3.27.27,0,0,1,.3-.3h3.1a.32.32,0,0,1,.3.3A.32.32,0,0,1-358.7,82.29Z"
          transform="translate(369.1 -59.29)"/>
    <path class="cls-1"
          d="M-358.7,83.59h-3.1c-.1,0-.2-.1-.2-.3a.27.27,0,0,1,.3-.3h3.1a.32.32,0,0,1,.3.3C-358.3,83.49-358.6,83.59-358.7,83.59Z"
          transform="translate(369.1 -59.29)"/>
    <path class="cls-1"
          d="M-358.7,84.89h-3.1a.32.32,0,0,1-.3-.3.27.27,0,0,1,.3-.3h3.1a.32.32,0,0,1,.3.3A.32.32,0,0,1-358.7,84.89Z"
          transform="translate(369.1 -59.29)"/>
    <path class="cls-1"
          d="M-358.7,87.49h-3.1a.22.22,0,0,1-.2-.2.32.32,0,0,1,.3-.3h3.1a.32.32,0,0,1,.3.3C-358.3,87.49-358.6,87.49-358.7,87.49Z"
          transform="translate(369.1 -59.29)"/>
    <path class="cls-1"
          d="M-358.7,88.79h-3.1a.32.32,0,0,1-.3-.3.27.27,0,0,1,.3-.3h3.1a.32.32,0,0,1,.3.3A.32.32,0,0,1-358.7,88.79Z"
          transform="translate(369.1 -59.29)"/>
    <path class="cls-1"
          d="M-358.7,90.09h-3.1a.32.32,0,0,1-.3-.3.27.27,0,0,1,.3-.3h3.1a.32.32,0,0,1,.3.3A.32.32,0,0,1-358.7,90.09Z"
          transform="translate(369.1 -59.29)"/>
    <path class="cls-1"
          d="M-358.7,91.39h-3.1a.32.32,0,0,1-.3-.3.27.27,0,0,1,.3-.3h3.1a.32.32,0,0,1,.3.3A.32.32,0,0,1-358.7,91.39Z"
          transform="translate(369.1 -59.29)"/>
    <path class="cls-1" d="M-352.4,74.59h-3.3v-3.3h3.3Zm-2.7-.6h2.1v-2.1h-2.1Z" transform="translate(369.1 -59.29)"/>
    <path class="cls-1" d="M-335,74.59h-3.3v-3.3h3.3Zm-2.8-.6h2.1v-2.1h-2.1Z" transform="translate(369.1 -59.29)"/>
    <path class="cls-1" d="M-352.4,91.89h-3.3v-3.3h3.3Zm-2.7-.6h2.1v-2.1h-2.1Z" transform="translate(369.1 -59.29)"/>
    <path class="cls-1" d="M-335,91.89h-3.3v-3.3h3.3Zm-2.8-.6h2.1v-2.1h-2.1Z" transform="translate(369.1 -59.29)"/>
    <rect class="cls-1" x="16.8" y="13.1" width="14.3" height="1.5"/>
    <rect class="cls-1" x="31.6" y="15" width="1.5" height="14.6"/>
    <rect class="cls-1" x="16.5" y="30.2" width="14.3" height="1.5"/>
    <rect class="cls-1" x="14.6" y="15" width="1.5" height="14.6"/>
</svg>
