<svg id="图层_1" data-name="图层 1" xmlns="http://www.w3.org/2000/svg" viewBox="0 0 25 29.7">
    <defs>
        <style>.cls-1,.cls-2{fill:none;}.cls-2{stroke:#fff;stroke-miterlimit:10;}</style>
    </defs>
    <title>获取地理位置</title>
    <path class="cls-1"
          d="M-103,16.7a.85.85,0,0,1-.6-.2c-.32-.21-1.17-.74-2.24-1.55-4.45.17-7.59.77-7.56,1.55,0,1,4.4,1.6,10.2,1.6S-93,17.42-93,16.5-96,15.14-100.19,15a21.45,21.45,0,0,1-2.26,1.54A1.07,1.07,0,0,1-103,16.7Z"
          transform="translate(115.75 9.3)"/>
    <path class="cls-1"
          d="M-98,1.8a5,5,0,0,0-5.1-5.1,5,5,0,0,0-5.1,5.1,5.06,5.06,0,0,0,5.1,5.1A5.06,5.06,0,0,0-98,1.8Zm-7.9,0a2.73,2.73,0,0,1,2.8-2.8,2.8,2.8,0,0,1,2.8,2.8,2.73,2.73,0,0,1-2.8,2.8A2.73,2.73,0,0,1-106,1.8Z"
          transform="translate(115.75 9.3)"/>
    <path class="cls-2"
          d="M-100.35,1.8a2.8,2.8,0,0,0-2.8-2.8A2.73,2.73,0,0,0-106,1.8a2.73,2.73,0,0,0,2.8,2.8A2.73,2.73,0,0,0-100.35,1.8Z"
          transform="translate(115.75 9.3)"/>
    <path class="cls-2"
          d="M-105.89,15c1.07.81,1.92,1.34,2.24,1.55a.85.85,0,0,0,.6.2,1.07,1.07,0,0,0,.6-.2A21.45,21.45,0,0,0-100.19,15"
          transform="translate(115.75 9.3)"/>
    <path class="cls-2"
          d="M-98.32,13.37c.42-.39.84-.81,1.27-1.27a20.83,20.83,0,0,0,3.2-4.5,14.37,14.37,0,0,0,1.5-6,11.75,11.75,0,0,0-1-4.1,8.56,8.56,0,0,0-2.3-3.3A11.05,11.05,0,0,0-99-8a11.5,11.5,0,0,0-4.1-.8,9.39,9.39,0,0,0-4.1.8,10,10,0,0,0-3.4,2.2A10.89,10.89,0,0,0-113-2.5a11.5,11.5,0,0,0-.8,4.1,13,13,0,0,0,1.5,6,18.66,18.66,0,0,0,3.2,4.5c.41.45.82.85,1.24,1.23m-.44-11.53a5,5,0,0,1,5.1-5.1A5,5,0,0,1-98,1.8a5.06,5.06,0,0,1-5.1,5.1A5.06,5.06,0,0,1-108.25,1.8Z"
          transform="translate(115.75 9.3)"/>
    <path class="cls-2"
          d="M-98.32,13.37c-.66.62-1.3,1.15-1.87,1.59,4.21.18,7.11.73,7.14,1.54s-4.4,1.6-10.2,1.6-10.17-.6-10.2-1.6c0-.78,3.11-1.38,7.56-1.55-.59-.45-1.25-1-1.93-1.62-3.41.33-7.44,1.16-7.44,3.17,0,3.3,10.8,3.4,12,3.4s12-.1,12-3.4C-91.25,14.56-95,13.72-98.32,13.37Z"
          transform="translate(115.75 9.3)"/>
    <path class="cls-2" d="M-100.19,15c.58-.44,1.21-1,1.87-1.59" transform="translate(115.75 9.3)"/>
    <path class="cls-2" d="M-107.81,13.33c.68.63,1.33,1.17,1.93,1.62" transform="translate(115.75 9.3)"/>
</svg>
