<?xml version="1.0" encoding="utf-8"?>
<!-- Generator: Adobe Illustrator 23.0.3, SVG Export Plug-In . SVG Version: 6.00 Build 0)  -->
<svg version="1.1" id="图层_1" xmlns="http://www.w3.org/2000/svg" xmlns:xlink="http://www.w3.org/1999/xlink" x="0px" y="0px"
	 viewBox="0 0 20 20" style="enable-background:new 0 0 20 20;" xml:space="preserve">
<style type="text/css">
	.st0{fill:#FFFFFF;}
</style>
<g>
	<g>
		<path class="st0" d="M19,19.1L19,19.1C19,19,19,19,19,19.1L19,19.1c0-0.1,0-0.2,0-0.3c-0.4-3.2-2.5-5.9-5.4-7.2
			c1.7-1.1,2.8-3.1,2.8-5.2C16.3,2.8,13.5,0,10,0C6.5,0,3.7,2.8,3.7,6.4c0,2.2,1.1,4.1,2.8,5.2c-2.9,1.2-4.9,3.9-5.4,7.1
			C1,18.8,1,18.9,1,19l0,0.1v0l0,0C1,19.6,1.4,20,1.9,20c0.5,0,0.9-0.4,0.9-0.9l0,0h0c0.4-3.5,3.3-6.2,6.8-6.4c0.1,0,0.3,0,0.4,0
			c0.1,0,0.3,0,0.4,0c3.5,0.2,6.4,2.9,6.8,6.4h0l0,0c0,0.5,0.4,0.9,0.9,0.9C18.6,20,19,19.6,19,19.1L19,19.1z M5.5,6.4
			c0-2.5,2-4.5,4.5-4.5s4.5,2,4.5,4.5c0,2.4-1.8,4.3-4.1,4.5c-0.1,0-0.3,0-0.4,0c-0.1,0-0.3,0-0.4,0C7.3,10.7,5.5,8.7,5.5,6.4
			L5.5,6.4z M5.5,6.4"/>
	</g>
</g>
</svg>
