<svg id="图层_1" data-name="图层 1" xmlns="http://www.w3.org/2000/svg" viewBox="0 0 19 19"><defs><style>.cls-1{fill:#fff;}</style></defs><title>发射机放置</title><path class="cls-1" d="M16.72.64H3.43V16.79h13.3V.64ZM14.83,14.89H5.33V2.54h9.5V14.89ZM1.53,17.74H18.62v1.9H1.53ZM17.68,4.43h1.9V13h-1.9Zm-17.1,0h1.9V13H.58Z" transform="translate(-0.58 -0.64)"/><path class="cls-1" d="M7.29,8.13H8.78a.11.11,0,0,1,.11.12L8,12.56H8l5-5.73a.07.07,0,0,0-.05-.12H11c-.07,0-.13-.07-.08-.13L12,4.88a.06.06,0,0,0-.06-.09H9.24A.32.32,0,0,0,9,4.93L7.25,8C7.24,8.09,7.26,8.13,7.29,8.13Z" transform="translate(-0.58 -0.64)"/></svg>