<svg id="图层_1" data-name="图层 1" xmlns="http://www.w3.org/2000/svg" viewBox="0 0 18.96 19.88"><defs><style>.cls-1{fill:#fff;}</style></defs><title>干扰机干扰判断</title><path class="cls-1" d="M19.46,11.84,18.07,8.71a.68.68,0,0,0-.67-.59H2.62A.69.69,0,0,0,2,8.71L.5,11.84h0v7.32a.77.77,0,0,0,.77.77H18.69a.77.77,0,0,0,.77-.77V11.85h0Zm-1.34,6.74H1.86V11.84H18.11v6.74Z" transform="translate(-0.5 -0.06)"/><path class="cls-1" d="M4.41,14.08H6a.4.4,0,0,0,.4-.4v-.37A.41.41,0,0,0,6,12.9H4.41a.41.41,0,0,0-.4.41v.37A.39.39,0,0,0,4.41,14.08Zm0,2.37H6a.4.4,0,0,0,.4-.4v-.37a.4.4,0,0,0-.4-.4H4.41a.4.4,0,0,0-.4.4v.37A.39.39,0,0,0,4.41,16.45Zm3.75-2.37h0a.6.6,0,1,0,0-1.19h0a.6.6,0,0,0-.59.6A.59.59,0,0,0,8.16,14.08Zm0,2.37h0a.59.59,0,0,0,.6-.59.6.6,0,0,0-.6-.59h0a.6.6,0,0,0-.59.59A.58.58,0,0,0,8.16,16.45Zm2.39-2.37h0a.6.6,0,0,0,0-1.19h0a.6.6,0,0,0-.59.6A.59.59,0,0,0,10.55,14.08Zm0,2.37h0a.59.59,0,0,0,.59-.59.6.6,0,0,0-.59-.59h0a.6.6,0,0,0-.59.59A.58.58,0,0,0,10.55,16.45Zm2.37-2.37h0a.6.6,0,0,0,0-1.19h0a.59.59,0,0,0-.59.6A.58.58,0,0,0,12.92,14.08Zm0,2.37h0a.59.59,0,0,0,.59-.59.6.6,0,0,0-.59-.59h0a.59.59,0,0,0-.59.59A.58.58,0,0,0,12.92,16.45Zm2.38-2.37h0a.6.6,0,0,0,0-1.19h0a.6.6,0,0,0-.59.6A.59.59,0,0,0,15.3,14.08Zm0,2.37h0a.58.58,0,0,0,.59-.59.59.59,0,0,0-.59-.59h0a.6.6,0,0,0-.59.59A.58.58,0,0,0,15.3,16.45Z" transform="translate(-0.5 -0.06)"/><path class="cls-1" d="M10.37,5.25V4.43a.6.6,0,0,0-.62-.52c-.3,0-.66.22-.66.52v.82H8.37V4.43c0-.3-.35-.53-.64-.53a.62.62,0,0,0-.63.53v.82H6V3.1H5.67V1.23A.62.62,0,0,0,5,.7c-.29,0-.65.24-.65.53V3.1H4V5.42h0C2.59,6,2.67,7.24,2.67,8.17H12.6c0-1.23-.35-2.82-2.23-2.92Zm5.75-3.08A6.71,6.71,0,0,1,18,6.61a.35.35,0,0,1-.12.3.39.39,0,0,1-.26.12h0a.37.37,0,0,1-.27-.13.37.37,0,0,1-.12-.26,6.1,6.1,0,0,0-.46-2.12,6,6,0,0,0-1.19-1.8A6.14,6.14,0,0,0,13.8,1.45,6,6,0,0,0,11.71.87a.42.42,0,0,1-.26-.12.36.36,0,0,1-.11-.32.43.43,0,0,1,.13-.26.35.35,0,0,1,.31-.1,6.5,6.5,0,0,1,2.38.66,6.63,6.63,0,0,1,2,1.44ZM13.26,4.86a2,2,0,0,1,.5.92.37.37,0,0,1,0,.21.42.42,0,0,1-.11.18.38.38,0,0,1-.18.09h-.1a.42.42,0,0,1-.28-.12A.41.41,0,0,1,13,6a1.21,1.21,0,0,0-.29-.56,1.18,1.18,0,0,0-.55-.32A.42.42,0,0,1,12,5a.39.39,0,0,1-.09-.39.38.38,0,0,1,.49-.27,1.9,1.9,0,0,1,.9.54Z" transform="translate(-0.5 -0.06)"/><path class="cls-1" d="M14.59,3.62a4.35,4.35,0,0,1,.83,1.24,4.3,4.3,0,0,1,.37,1.46.39.39,0,0,1-.12.32.36.36,0,0,1-.25.11h0a.39.39,0,0,1-.28-.13A.41.41,0,0,1,15,6.38a3.66,3.66,0,0,0-.31-1.21,4.09,4.09,0,0,0-.67-1,4,4,0,0,0-1-.73,3.24,3.24,0,0,0-1.18-.36.34.34,0,0,1-.24-.13.35.35,0,0,1-.1-.32.29.29,0,0,1,.12-.24.36.36,0,0,1,.32-.11,4.1,4.1,0,0,1,1.44.44,5.23,5.23,0,0,1,1.21.92Z" transform="translate(-0.5 -0.06)"/></svg>