<svg id="图层_1" data-name="图层 1" xmlns="http://www.w3.org/2000/svg" viewBox="0 0 18.56 19.92"><defs><style>.cls-1{fill:#fff;}</style></defs><title>无人平台干扰判断</title><path class="cls-1" d="M8.73,8.78h2.11v3H8.73ZM.84,13.52H18.6v5.11H.84Z" transform="translate(-0.74 -0.03)"/><path class="cls-1" d="M17.9,12.6a.81.81,0,0,1,.81.81v5.73a.81.81,0,0,1-.81.81H15.45a.82.82,0,0,1-.82-.81V13.42a.82.82,0,0,1,.82-.81H17.9ZM4,12.6a.81.81,0,0,1,.81.81v5.73A.81.81,0,0,1,4,20H1.55a.81.81,0,0,1-.81-.81V13.42a.81.81,0,0,1,.81-.81Zm8.06-1.39a.83.83,0,0,1,.82.82v1.53H6.55V12a.83.83,0,0,1,.82-.82Zm4-4.33a1,1,0,0,1,0,2H3.39a1,1,0,1,1,0-2Z" transform="translate(-0.74 -0.03)"/><path class="cls-1" d="M17.38,2.19A7,7,0,0,1,19.3,6.75a.41.41,0,0,1-.39.43h0a.4.4,0,0,1-.29-.12.4.4,0,0,1-.11-.27A6,6,0,0,0,18,4.61a6,6,0,0,0-1.21-1.85A6.21,6.21,0,0,0,12.84.86a.43.43,0,0,1-.27-.13.36.36,0,0,1-.1-.32.37.37,0,0,1,.12-.26A.37.37,0,0,1,12.92,0a7,7,0,0,1,2.44.67,7.63,7.63,0,0,1,2,1.48ZM14.44,5a2.05,2.05,0,0,1,.51,1,.41.41,0,0,1,0,.22.45.45,0,0,1-.11.17.35.35,0,0,1-.19.1h-.11a.42.42,0,0,1-.38-.31,1.16,1.16,0,0,0-.3-.57,1.21,1.21,0,0,0-.56-.34.39.39,0,0,1-.19-.1.46.46,0,0,1-.1-.41.49.49,0,0,1,.11-.18.4.4,0,0,1,.4-.1,2,2,0,0,1,.93.56Z" transform="translate(-0.74 -0.03)"/><path class="cls-1" d="M15.8,3.69A4.54,4.54,0,0,1,16.65,5,4.31,4.31,0,0,1,17,6.47a.41.41,0,0,1-.12.33.36.36,0,0,1-.26.11h0a.39.39,0,0,1-.28-.13.39.39,0,0,1-.12-.25,3.77,3.77,0,0,0-.31-1.24,4.1,4.1,0,0,0-.7-1,3.74,3.74,0,0,0-1-.75A3.41,3.41,0,0,0,13,3.12.36.36,0,0,1,12.73,3a.38.38,0,0,1-.11-.33.36.36,0,0,1,.13-.25.38.38,0,0,1,.33-.11,4.39,4.39,0,0,1,1.48.45,4.83,4.83,0,0,1,1.24.94Z" transform="translate(-0.74 -0.03)"/></svg>