<svg id="图层_1" data-name="图层 1" xmlns="http://www.w3.org/2000/svg" viewBox="0 0 18.51 19.98"><defs><style>.cls-1{fill:#fff;}</style></defs><title>添加发射机</title><path class="cls-1" d="M15.89,4.83V7.94c0,.27-.33.48-.59.48s-.58-.18-.6-.43V4.82H11.57c-.25,0-.45-.32-.46-.57v0c0-.26.23-.59.49-.59h3.12V.53c0-.26.33-.47.59-.48a.58.58,0,0,1,.59.43V3.64H19c.26,0,.46.32.46.57v0a.6.6,0,0,1-.48.59Z" transform="translate(-0.99 -0.05)"/><path class="cls-1" d="M19.11,12.28l-1.33-3a.65.65,0,0,0-.64-.55H3a.65.65,0,0,0-.64.55L1,12.28H1l0,0v7a.74.74,0,0,0,.74.74H18.37a.74.74,0,0,0,.74-.74v-7l0,0Zm-1.29,6.45H2.28V12.28H17.81v6.45Z" transform="translate(-0.99 -0.05)"/><path class="cls-1" d="M4.73,14.43H6.24A.39.39,0,0,0,6.62,14v-.35a.38.38,0,0,0-.38-.38H4.73a.39.39,0,0,0-.39.38V14A.39.39,0,0,0,4.73,14.43Zm0,2.27H6.24a.38.38,0,0,0,.38-.38V16a.38.38,0,0,0-.38-.38H4.73a.39.39,0,0,0-.39.38v.36A.39.39,0,0,0,4.73,16.7Zm3.58-2.27h0a.57.57,0,0,0,.56-.57.56.56,0,0,0-.56-.56h0a.57.57,0,0,0,0,1.13Zm0,2.27h0a.57.57,0,0,0,.56-.57.56.56,0,0,0-.56-.56h0a.57.57,0,0,0,0,1.13Zm2.28-2.27h0a.57.57,0,0,0,.56-.57.56.56,0,0,0-.56-.56h0a.57.57,0,1,0,0,1.13Zm0,2.27h0a.57.57,0,0,0,.56-.57.56.56,0,0,0-.56-.56h0a.57.57,0,1,0,0,1.13Zm2.26-2.27h0a.58.58,0,0,0,.57-.57.57.57,0,0,0-.57-.56h0a.57.57,0,0,0,0,1.13Zm0,2.27h0a.58.58,0,0,0,.57-.57.57.57,0,0,0-.57-.56h0a.57.57,0,0,0,0,1.13Zm2.28-2.27h0a.58.58,0,0,0,.57-.57.57.57,0,0,0-.57-.56h0a.57.57,0,0,0,0,1.13Zm0,2.27h0a.58.58,0,0,0,.57-.57.57.57,0,0,0-.57-.56h0a.57.57,0,0,0,0,1.13Z" transform="translate(-0.99 -0.05)"/><path class="cls-1" d="M10.42,6V5.21a.57.57,0,0,0-.6-.49c-.28,0-.63.21-.63.49V6H8.51V5.21c0-.28-.34-.51-.61-.51a.6.6,0,0,0-.6.51V6h-1V3.94H5.93V2.15a.6.6,0,0,0-.6-.51c-.28,0-.62.23-.62.51V3.94H4.35V6.16h0C3,6.7,3.06,7.89,3.06,8.78h9.49c0-1.17-.34-2.7-2.13-2.79Z" transform="translate(-0.99 -0.05)"/></svg>