<svg id="图层_1" data-name="图层 1" xmlns="http://www.w3.org/2000/svg" viewBox="0 0 19.98 18.47"><defs><style>.cls-1{fill:#fff;}</style></defs><title>添加车辆</title><path class="cls-1" d="M16.18,5.88V9.19c0,.28-.35.51-.63.52s-.61-.2-.62-.46V5.88H11.59c-.27,0-.49-.34-.5-.6v0c0-.28.24-.62.52-.62h3.32V1.32c0-.28.34-.5.62-.51a.62.62,0,0,1,.63.46V4.64h3.34c.27,0,.48.34.49.6v0c0,.28-.23.62-.51.62Z" transform="translate(-0.03 -0.81)"/><path class="cls-1" d="M9.28,11v-.1A.17.17,0,0,0,9.28,11Z" transform="translate(-0.03 -0.81)"/><path class="cls-1" d="M18.52,11.89l-.21-1a1,1,0,0,0-.83-.61h-.8s-3.4-.11-7.4-.11a54.11,54.11,0,0,0-5.83.22A17.44,17.44,0,0,1,4.57,7c.09-.22,0-.78,4.71-.78h.78a4.3,4.3,0,0,1,.07-1.34H9.27a22.57,22.57,0,0,0-4,.21A2.75,2.75,0,0,0,3.33,6.31c-.17.33-.88,2.31-1.47,3.94H1.09a1,1,0,0,0-.83.6l-.2,1A1,1,0,0,0,0,12v.1a.76.76,0,0,0,.06.2.45.45,0,0,0,.36.2h.91a4.08,4.08,0,0,0-.17.44,1.49,1.49,0,0,0-.06.51v5.21a.65.65,0,0,0,.65.63h2.5a.64.64,0,0,0,.65-.63V17.51h8.59v1.14a.65.65,0,0,0,.65.63h2.58a.56.56,0,0,0,.43-.19.65.65,0,0,0,.16-.45V13.45a1.54,1.54,0,0,0-.11-.7l-.12-.25H18c.42,0,.48-.23.48-.61ZM5.64,15.23h-1c-.91,0-1.82-.13-1.82-.77v-.68c0-.74.39-.77.82-.77a5.84,5.84,0,0,1,1.76.64c.59.29,1.25.45,1.25.92s-.23.66-1,.66Zm10.13-.76c0,.63-.91.77-1.82.77h-1c-.76,0-1-.21-1-.64s.66-.63,1.25-.92A5.75,5.75,0,0,1,14.94,13c.42,0,.82,0,.82.77v.66Z" transform="translate(-0.03 -0.81)"/></svg>