<svg id="图层_1" data-name="图层 1" xmlns="http://www.w3.org/2000/svg" viewBox="0 0 19.91 18.08"><defs><style>.cls-1{fill:#fff;}</style></defs><title>添加无人机平台</title><path class="cls-1" d="M16.09,5.73V9.12c0,.28-.35.51-.64.52s-.63-.2-.64-.48h0V5.72H11.39c-.28,0-.5-.35-.5-.62v0c0-.29.24-.64.53-.64h3.39V1.06c0-.29.36-.52.64-.53s.63.21.64.48V4.44h3.42c.27,0,.49.34.5.62v0c0,.28-.25.63-.53.64Z" transform="translate(-0.1 -0.53)"/><path class="cls-1" d="M13.85,6.65H3.58V6.13a.54.54,0,1,0-1.07,0V7.64H.43A.37.37,0,0,0,.1,8v.32a.37.37,0,0,0,.33.4H2.5v1.53a.56.56,0,0,0,.54.57.56.56,0,0,0,.54-.57V8.78H8.51a4,4,0,0,0-1,.41l-.26.13a2.55,2.55,0,0,1-1.5.48H4.63l-.87,1.49,1.85,0a2.85,2.85,0,0,1,2,1.73c.15.85.46.93.74,1,.19.4-.24.34-.24.34l.05.78H6.76v3.12H11V15.1H9.6l0-.78s-.43.06-.24-.34c.28-.05.6-.13.75-1a2.85,2.85,0,0,1,2-1.73,3.68,3.68,0,0,1,1,0V9.8H12.05s-.53.32-1.52-.25a4.12,4.12,0,0,1-.42-.26,3.15,3.15,0,0,0-.95-.51h4.69ZM8.39,16.18H7.55v-.54h.84Zm1.68.37a.68.68,0,1,1-.68-.72A.7.7,0,0,1,10.07,16.55Z" transform="translate(-0.1 -0.53)"/><path class="cls-1" d="M13.21,12.17a.86.86,0,0,0-.62-.19c-.27.06-.74.43-.15.88S15,15.6,14.16,18.43c.21.23,1.25.34,1-.35,0-.06,0-.13,0-.22a6.7,6.7,0,0,0-2-5.69Zm-8.69,0A.86.86,0,0,1,5.14,12c.28.06.74.43.15.89s-2.52,2.74-1.72,5.57c-.21.22-1.25.33-1-.36a1.86,1.86,0,0,0,0-.22C2.47,16.85,2.31,14.07,4.52,12.17Z" transform="translate(-0.1 -0.53)"/></svg>