<svg id="图层_1" data-name="图层 1" xmlns="http://www.w3.org/2000/svg" viewBox="0 0 18.58 20.17"><defs><style>.cls-1{fill:#fff;}</style></defs><title>添加受扰站</title><path class="cls-1" d="M15.66,5.32V8.81c0,.29-.36.53-.65.54s-.65-.21-.66-.48V5.32H10.83c-.28,0-.51-.36-.52-.63v0c0-.29.25-.65.54-.65h3.5V.52c0-.29.36-.53.66-.54s.64.21.65.48V4h3.53c.28,0,.5.36.52.63v0c0,.3-.25.66-.55.66Z" transform="translate(-1.11 0.02)"/><polygon class="cls-1" points="7.84 9.74 8.49 9.1 8.49 7.26 6.92 8.81 7.84 9.74"/><polygon class="cls-1" points="13.8 13.55 14.22 13.49 13.77 10.29 13.32 10.29 13.8 13.55"/><path class="cls-1" d="M16.13,11.08a5.83,5.83,0,0,0-.32-.6l-.15-.22h-.58c1,1.66,1.32,3,.74,3.62-1,1-4.57-.82-7.88-4.13S2.76,2.89,3.8,1.86c.64-.64,2.19-.2,4.06,1L4.58,2.22l-.09.43,4.27.84c.29.21.56.43.84.66v-1l-.52-.1a11.52,11.52,0,0,0-3-1.66A3.74,3.74,0,0,0,3.5,1.21a1.06,1.06,0,0,0-.44.35,5.58,5.58,0,0,0-.49.77,7.07,7.07,0,0,0-.71,2.89,13,13,0,0,0,.53,4,10.17,10.17,0,0,0,1.61,3L2,19.08H1.11v1.06H10V19.08H9.12L7.85,15a12.81,12.81,0,0,0,5.48.76,4.68,4.68,0,0,0,3.19-1.51,1.53,1.53,0,0,0,.2-1.25A6.52,6.52,0,0,0,16.13,11.08ZM6,14.15l1.18,1.52L6,16.43Zm-1.49-1.3c.17.13.32.3.48.45L4,14.69ZM3.61,16,5.1,17l-2.19,1.4Zm1.65,3.1H3.06l2.2-1.41Zm0-2.77L4.14,15.6l1.12-1.54ZM6,19.11V17.63L8.2,19.11ZM8.2,18.3,6.3,17l1.24-.79Z" transform="translate(-1.11 0.02)"/></svg>