<svg id="图层_1" data-name="图层 1" xmlns="http://www.w3.org/2000/svg" viewBox="0 0 19.96 18.84"><defs><style>.cls-1{fill:#fff;}</style></defs><title>添加干扰站</title><path class="cls-1" d="M16,6V9.48c0,.29-.36.53-.66.54s-.64-.21-.65-.48V6H11.13c-.29,0-.51-.36-.52-.63v0c0-.3.24-.66.54-.66h3.49V1.21c0-.29.36-.53.65-.54s.65.21.66.48V4.69h3.51c.28,0,.51.36.52.63v0c0,.29-.25.65-.54.65Z" transform="translate(-0.01 -0.67)"/><path class="cls-1" d="M8.43,8.78h2.25v3.16H8.43ZM0,13.83H19v5.44H0Z" transform="translate(-0.01 -0.67)"/><path class="cls-1" d="M4.11,12.4H1.74A.79.79,0,0,0,1,13.2v5.52a.79.79,0,0,0,.79.79H4.11a.79.79,0,0,0,.79-.79V13.2A.79.79,0,0,0,4.11,12.4Z" transform="translate(-0.01 -0.67)"/><path class="cls-1" d="M3.51,8.84H13.74v-2H3.51a1,1,0,0,0,0,2Z" transform="translate(-0.01 -0.67)"/><path class="cls-1" d="M11.91,11.05H7.37a.79.79,0,0,0-.79.79v1.48h6.11V11.84A.79.79,0,0,0,11.91,11.05Z" transform="translate(-0.01 -0.67)"/><path class="cls-1" d="M17.53,12.4H15.16a.79.79,0,0,0-.79.79v5.52a.79.79,0,0,0,.79.79h2.37a.79.79,0,0,0,.79-.79V13.2A.8.8,0,0,0,17.53,12.4Z" transform="translate(-0.01 -0.67)"/></svg>