<svg id="图层_1" data-name="图层 1" xmlns="http://www.w3.org/2000/svg" viewBox="0 0 19.98 15.18"><defs><style>.cls-1{fill:#fff;}</style></defs><title>添加人员</title><path class="cls-1" d="M15.73,10.94v3.68c0,.31-.38.56-.7.57s-.68-.23-.69-.51V10.94H10.62c-.3,0-.53-.39-.55-.67v0c0-.31.27-.69.58-.69h3.69V5.87c0-.31.38-.56.69-.58a.7.7,0,0,1,.7.52V9.55h3.71c.3,0,.54.38.55.67v0c0,.31-.26.7-.57.7Z" transform="translate(-0.01 -1.85)"/><path class="cls-1" d="M7.58,9.44a3.62,3.62,0,0,0,2.66-1.11,3.64,3.64,0,0,0,1.11-2.67A3.66,3.66,0,0,0,10.24,3,3.57,3.57,0,0,0,7.58,1.85,3.59,3.59,0,0,0,4.91,3,3.69,3.69,0,0,0,3.8,5.66,3.66,3.66,0,0,0,4.91,8.33,3.66,3.66,0,0,0,7.58,9.44Z" transform="translate(-0.01 -1.85)"/><path class="cls-1" d="M13,12.57l-.42-.18a13.44,13.44,0,0,0-5-1h0a13.41,13.41,0,0,0-5,1C.87,13.09,0,14,0,15.12V17H13V12.57Z" transform="translate(-0.01 -1.85)"/></svg>