<svg id="图层_1" data-name="图层 1" xmlns="http://www.w3.org/2000/svg" viewBox="0 0 19.99 19.98"><defs><style>.cls-1{fill:#fff;}</style></defs><title>电波射线</title><path class="cls-1" d="M10,0a.57.57,0,0,1,.53.53V7.86L12,4.38a.27.27,0,0,1,.3-.17h.07a.3.3,0,0,1,.16.37L11.07,8.08,16,3.18a.58.58,0,0,1,.81,0,.57.57,0,0,1,0,.77L11.88,8.88l3.49-1.44a.3.3,0,0,1,.37.17.29.29,0,0,1-.15.36L12.11,9.41h7.32A.57.57,0,0,1,20,10a.55.55,0,0,1-.54.59H12.11L15.58,12a.29.29,0,0,1,.16.37.34.34,0,0,1-.2.17h-.07l-.1,0-3.49-1.45L16.77,16a.56.56,0,0,1,0,.81.45.45,0,0,1-.32.16h-.09a.58.58,0,0,1-.4-.17l-4.89-4.89,1.45,3.48a.31.31,0,0,1-.09.35l-.06,0h-.1a.28.28,0,0,1-.27-.17L10.56,12.1v7.32a.57.57,0,0,1-.47.56H10a.56.56,0,0,1-.57-.57V12.1L8,15.59a.29.29,0,0,1-.2.17l-.06,0a.28.28,0,0,1-.28-.3.19.19,0,0,1,0-.1L8.9,11.89,4,16.78a.55.55,0,0,1-.32.16H3.6a.54.54,0,0,1-.33-.1L3.2,16.8a.58.58,0,0,1,0-.81h0L8.09,11.1,4.61,12.54H4.5A.28.28,0,0,1,4.39,12l3.48-1.44H.55A.57.57,0,0,1,0,9.94a.57.57,0,0,1,.52-.51H7.87L4.38,8a.3.3,0,0,1-.16-.37.31.31,0,0,1,.37-.16L8.08,8.9,3.19,4A.57.57,0,1,1,4,3.2H4L8.89,8.09,7.44,4.6a.29.29,0,0,1,.16-.37A.28.28,0,0,1,8,4.39L9.42,7.88V.56A.56.56,0,0,1,10,0Z" transform="translate(-0.03 -0.01)"/></svg>