<svg id="图层_1" data-name="图层 1" xmlns="http://www.w3.org/2000/svg" viewBox="0 0 30.05 22.13"><defs><style>.cls-1{fill:#fff;}</style></defs><title>行动支持</title><path class="cls-1" d="M.16,19.81c.38-.36,6.39-5.53,6.76-5.9a1.18,1.18,0,0,1,.75-.37h9.59s1.5.2,1.5,1.49a1.81,1.81,0,0,1-1.5,1.85c-.94.19-2.63.56-4.13.73-.56,0,0,.37,0,.37L15,19.27h6.4S24,17.42,25.92,16c2.82-2,4,0,4,0s.38.74,0,1.1c-1.5,1.3-7,6.1-7.34,6.46a1,1,0,0,1-.94.2H10.49A2.22,2.22,0,0,0,9,24.26s-1.7,1.47-2.25,1.85c-1,.74-1.31,0-1.31,0L.37,20.77a.61.61,0,0,1-.21-1Z" transform="translate(0.01 -4.31)"/><path class="cls-1" d="M25,5.5a1.2,1.2,0,0,0-1.2-1.19h-12a1.21,1.21,0,0,0-1.2,1.19V6.7H25Zm.59,6.58.59-2.4A1.2,1.2,0,0,0,25,8.49H10.64a1.2,1.2,0,0,0-1.2,1.19l.59,2.4Z" transform="translate(0.01 -4.31)"/></svg>