<svg id="图层_1" data-name="图层 1" xmlns="http://www.w3.org/2000/svg" viewBox="0 0 19.92 18.01"><defs><style>.cls-1{fill:#fff;}</style></defs><title>车辆人员联通判断</title><path class="cls-1" d="M9.5,10.46v-.1A.17.17,0,0,0,9.5,10.46Z" transform="translate(-0.02 -0.97)"/><path class="cls-1" d="M19,11.41l-.21-1.06a1,1,0,0,0-.85-.63h-.82L16.8,9a4.5,4.5,0,0,1-1.44.51c0,.14.08.17.12.31s-1.89-.22-6-.22a56.82,56.82,0,0,0-6,.22A18.2,18.2,0,0,1,4.67,6.45c.09-.23,0-.81,4.83-.81h.79a4.56,4.56,0,0,1,0-.64,3.76,3.76,0,0,1,.1-.74H9.5a21.63,21.63,0,0,0-4.13.23,2.84,2.84,0,0,0-2,1.21c-.17.33-.9,2.38-1.49,4h-.8a1,1,0,0,0-.85.62L.05,11.4a.61.61,0,0,0,0,.11v.1a.52.52,0,0,0,.07.21A.45.45,0,0,0,.46,12H1.4c-.06.19-.15.36-.17.45a1.63,1.63,0,0,0-.06.53v5.33a.67.67,0,0,0,.67.65H4.4a.65.65,0,0,0,.67-.65V17.15h8.8v1.17a.67.67,0,0,0,.67.65h2.64a.62.62,0,0,0,.61-.65V13a1.44,1.44,0,0,0-.12-.71L17.55,12h.95c.39,0,.46-.23.45-.62ZM5.76,14.82h-1c-.93,0-1.86-.13-1.86-.77v-.71c0-.75.4-.78.84-.78a5.91,5.91,0,0,1,1.81.66c.6.29,1.28.46,1.28.95s-.24.65-1,.65Zm10.38-.77c0,.64-.93.77-1.86.77h-1c-.79,0-1-.2-1-.65s.68-.66,1.28-.95a5.91,5.91,0,0,1,1.81-.66c.43,0,.84,0,.84.78v.71Z" transform="translate(-0.02 -0.97)"/><path class="cls-1" d="M12,8a1.11,1.11,0,0,0,1-1.15,1.12,1.12,0,0,0-1-1.16,1.12,1.12,0,0,0-1.05,1.16A1.11,1.11,0,0,0,12,8Zm-.12,1.69,1-1.41A3.48,3.48,0,0,0,12,8.17a2.71,2.71,0,0,0-1.25.24s-.08,0-.23.27-.61,1-.71,1.15-.26.38-.14.65A2.15,2.15,0,0,0,10,11h.58a1.37,1.37,0,0,1,1.33-1.27Zm2.31.13c-.19-.31-.59-1-.62-1a.84.84,0,0,0-.42-.44l-.1,0L12.1,9.69A1.35,1.35,0,0,1,13.44,11H14s.06,0,.34-.51c.1-.27,0-.39-.13-.62ZM12,10a1,1,0,0,0-1.11.93h2.22A1,1,0,0,0,12,10Z" transform="translate(-0.02 -0.97)"/><path class="cls-1" d="M17.93,3.22A7.29,7.29,0,0,1,19.36,5.4,7.07,7.07,0,0,1,19.93,8a.41.41,0,0,1-.13.33.42.42,0,0,1-.28.12h0a.41.41,0,0,1-.29-.13A.43.43,0,0,1,19.07,8a6.38,6.38,0,0,0-1.76-4.2,6.75,6.75,0,0,0-1.86-1.36,6.5,6.5,0,0,0-2.25-.62.43.43,0,0,1-.28-.13.4.4,0,0,1-.11-.34.48.48,0,0,1,.13-.28A.39.39,0,0,1,13.28,1a7.07,7.07,0,0,1,2.54.71,7,7,0,0,1,2.11,1.54ZM14.86,6.1a2.09,2.09,0,0,1,.53,1,.44.44,0,0,1,0,.23.42.42,0,0,1-.11.18.37.37,0,0,1-.19.11H15a.42.42,0,0,1-.29-.14.39.39,0,0,1-.1-.19,1.26,1.26,0,0,0-.32-.59,1.17,1.17,0,0,0-.58-.35.39.39,0,0,1-.2-.11.44.44,0,0,1-.1-.42.49.49,0,0,1,.11-.2.44.44,0,0,1,.42-.1,2.11,2.11,0,0,1,1,.58Z" transform="translate(-0.02 -0.97)"/><path class="cls-1" d="M16.28,4.77a4.56,4.56,0,0,1,.89,1.33,4.49,4.49,0,0,1,.4,1.57.41.41,0,0,1-.13.34.34.34,0,0,1-.27.12h0a.47.47,0,0,1-.42-.4,3.82,3.82,0,0,0-.32-1.29,4.08,4.08,0,0,0-.73-1.09,3.87,3.87,0,0,0-1.05-.79,3.54,3.54,0,0,0-1.27-.39A.41.41,0,0,1,13.08,4,.42.42,0,0,1,13,3.69a.41.41,0,0,1,.13-.26.42.42,0,0,1,.35-.11A4.58,4.58,0,0,1,15,3.79a5.37,5.37,0,0,1,1.28,1Z" transform="translate(-0.02 -0.97)"/></svg>