<svg id="图层_1" data-name="图层 1" xmlns="http://www.w3.org/2000/svg" viewBox="0 0 29.97 26.09"><defs><style>.cls-1{fill:#fff;}</style></defs><title>首页</title><path class="cls-1" d="M26,12l-1-1V6.34a1.63,1.63,0,1,0-3.25,0V7.73L15.49,1.46a.6.6,0,0,0-.86,0h0L4.09,12,.23,15.87a.58.58,0,0,0,.41,1H4.09v8.76a1.75,1.75,0,0,0,1.74,1.74h5.93v-8A3.28,3.28,0,0,1,15,16.11a3.28,3.28,0,0,1,3.29,3.29v8h5.92A1.74,1.74,0,0,0,26,25.62V16.88h3.45a.58.58,0,0,0,.42-1S26,12,26,12Z" transform="translate(-0.06 -1.28)"/></svg>