<?xml version="1.0" encoding="utf-8"?>
<!-- Generator: Adobe Illustrator 21.0.0, SVG Export Plug-In . SVG Version: 6.00 Build 0)  -->
<svg version="1.1" id="图层_1" xmlns="http://www.w3.org/2000/svg" xmlns:xlink="http://www.w3.org/1999/xlink" x="0px" y="0px"
	 viewBox="0 0 16 16" style="enable-background:new 0 0 16 16;" xml:space="preserve">
<style type="text/css">
	.st0{fill:#FFFFFF;}
</style>
<g>
	<path class="st0" d="M15,0c0.3,0,0.5,0.1,0.7,0.3C15.9,0.5,16,0.7,16,1c0,0.3-0.1,0.5-0.3,0.7L9.4,8l6.3,6.3
		c0.2,0.2,0.3,0.4,0.3,0.7c0,0.3-0.1,0.5-0.3,0.7C15.5,15.9,15.3,16,15,16c-0.3,0-0.5-0.1-0.7-0.3L8,9.4l-6.3,6.3
		C1.5,15.9,1.3,16,1,16c-0.3,0-0.5-0.1-0.7-0.3C0.1,15.5,0,15.3,0,15c0-0.3,0.1-0.5,0.3-0.7L6.6,8L0.3,1.7C0.1,1.5,0,1.3,0,1
		c0-0.3,0.1-0.5,0.3-0.7C0.5,0.1,0.7,0,1,0c0.3,0,0.5,0.1,0.7,0.3L8,6.6l6.3-6.3C14.5,0.1,14.7,0,15,0"/>
</g>
<g>
</g>
<g>
</g>
<g>
</g>
<g>
</g>
<g>
</g>
</svg>
