<?xml version="1.0" standalone="no"?><!DOCTYPE svg PUBLIC "-//W3C//DTD SVG 1.1//EN" "http://www.w3.org/Graphics/SVG/1.1/DTD/svg11.dtd"><svg t="1681804973145" class="icon" viewBox="0 0 1024 1024" version="1.1" xmlns="http://www.w3.org/2000/svg" p-id="3169" xmlns:xlink="http://www.w3.org/1999/xlink" width="200" height="200"><path d="M960 64h-41.7L657.1 325.2 555.8 223.8 715.5 64H625L510.5 178.5 396 64h-90.5l159.8 159.8-120.7 120.6L64.2 64H64v90.3l235.4 235.3-113.5 113.6L64 381.3v90.5l76.6 76.6L64 625v90.5l121.9-121.9L287.2 695 64 918.3V960h48.8l219.7-219.7 101.4 101.4L315.5 960H406l73.1-73.1 73.1 73.1h90.5L524.4 841.6l113.5-113.5L869.8 960H960v-0.3L683.1 682.9l120.6-120.6L960 718.5V628L849 517l111-111v-90.5L803.8 471.8 702.4 370.4 960 112.8V64zM510.5 269l101.4 101.4L491.3 491 389.9 389.7 510.5 269zM231.1 548.4l113.5-113.5L446 536.3 332.5 649.8 231.1 548.4z m248 248L377.8 695l113.5-113.5 101.4 101.4-113.6 113.5zM758.5 517L637.9 637.6 536.5 536.3l120.6-120.6L758.5 517z" fill="#ffffff" p-id="3170"></path></svg>
