<svg id="图层_1" data-name="图层 1" xmlns="http://www.w3.org/2000/svg" viewBox="0 0 16.93 16.93"><defs><style>.cls-1{fill:#fff;}</style></defs><title>工具</title><path class="cls-1" d="M16.62,4.28,14,7c-.25.24-1.08.22-1.08.22a9.15,9.15,0,0,1-2.52-.57A9.71,9.71,0,0,1,9.84,4a1.39,1.39,0,0,1,.26-1L12.76.37s.3-.34-.13-.34C11.22,0,8.36.06,7,1.45l-.29.28a4.55,4.55,0,0,0-.52,5.81L.79,12.29a2.88,2.88,0,0,0,0,3.9,2.86,2.86,0,0,0,3.89,0s3.84-4.32,4.77-5.35a4.47,4.47,0,0,0,5.82-.48l.29-.29C16.9,8.72,16.94,5.88,17,4.45,17,4,16.62,4.28,16.62,4.28ZM3.14,15.43a1.59,1.59,0,1,1,1.59-1.59A1.59,1.59,0,0,1,3.14,15.43Z" transform="translate(-0.02 -0.03)"/></svg>