<?xml version="1.0" encoding="utf-8"?>
<!-- Generator: Adobe Illustrator 23.0.3, SVG Export Plug-In . SVG Version: 6.00 Build 0)  -->
<svg version="1.1" id="图层_1" xmlns="http://www.w3.org/2000/svg" xmlns:xlink="http://www.w3.org/1999/xlink" x="0px" y="0px"
	 viewBox="0 0 14 14" style="enable-background:new 0 0 14 14;" xml:space="preserve">
<style type="text/css">
	.st0{fill:#FF580D;}
</style>
<g>
	<g>
		<path class="st0" d="M7,14c-3.9,0-7-3.1-7-7s3.1-7,7-7s7,3.1,7,7S10.9,14,7,14L7,14z M7,12.9c3.3,0,5.9-2.7,5.9-5.9
			c0-3.3-2.7-5.9-5.9-5.9C3.7,1.1,1.1,3.7,1.1,7S3.7,12.9,7,12.9L7,12.9z M7,2.7c0.3,0,0.5,0.2,0.5,0.5v4.3C7.5,7.8,7.3,8,7,8
			S6.5,7.8,6.5,7.5V3.2C6.5,2.9,6.7,2.7,7,2.7L7,2.7z M7,9.7c0.3,0,0.5,0.2,0.5,0.5S7.3,10.7,7,10.7s-0.5-0.2-0.5-0.5S6.7,9.7,7,9.7
			L7,9.7z"/>
	</g>
</g>
</svg>
