<?xml version="1.0" encoding="utf-8"?>
<!-- Generator: Adobe Illustrator 23.0.3, SVG Export Plug-In . SVG Version: 6.00 Build 0)  -->
<svg version="1.1" id="图层_1" xmlns="http://www.w3.org/2000/svg" xmlns:xlink="http://www.w3.org/1999/xlink" x="0px" y="0px"
	 viewBox="0 0 26 26" style="enable-background:new 0 0 26 26;" xml:space="preserve">
<style type="text/css">
	.st0{opacity:0.8;}
	.st1{fill:#fff;}
</style>
<g class="st0">
	<g>
		<path class="st1" d="M20.4,25.9H5.6c-2,0-3.7-1.7-3.7-3.7V10.5h2.5V8.7c0-2.3,0.9-4.5,2.5-6.1s3.8-2.5,6.1-2.5s4.5,0.9,6.1,2.5
			s2.5,3.8,2.5,6.1v1.8h2.5v11.7C24.1,24.3,22.4,25.9,20.4,25.9L20.4,25.9z M13.3,20.3c0.5,0,0.9-0.4,0.9-0.9v-3.7
			c0-0.5-0.4-0.9-0.9-0.9h-0.6c-0.5,0-0.9,0.4-0.9,0.9v3.7c0,0.5,0.4,0.9,0.9,0.9H13.3z M19.1,9.2c0-3.7-2.4-6.7-6.1-6.7
			c-3.4,0-6.2,2.8-6.2,6.2v1.8h12.3V9.2z"/>
	</g>
</g>
</svg>
