<?xml version="1.0" encoding="utf-8"?>
<!-- Generator: Adobe Illustrator 23.0.3, SVG Export Plug-In . SVG Version: 6.00 Build 0)  -->
<svg version="1.1" id="图层_1" xmlns="http://www.w3.org/2000/svg" xmlns:xlink="http://www.w3.org/1999/xlink" x="0px" y="0px"
	 viewBox="0 0 26 26" style="enable-background:new 0 0 26 26;" xml:space="preserve">
<style type="text/css">
	.st0{opacity:0.8;}
	.st1{fill:#fff;}
</style>
<g class="st0">
	<g>
		<path class="st1" d="M12.8,13c3.6,0,6.6-2.9,6.6-6.4c0-3.6-3-6.4-6.6-6.4C9.2,0.1,6.2,3,6.2,6.6C6.2,10.1,9.2,13,12.8,13L12.8,13z
			 M15.9,15.1h-5.5c-4.7,0-8.5,3.7-8.5,8.3V24c0,1.9,3.8,1.9,8.5,1.9h5.5c4.7,0,8.5-0.1,8.5-1.9v-0.5C24.4,18.9,20.6,15.1,15.9,15.1
			L15.9,15.1z"/>
	</g>
</g>
</svg>
