<svg id="图层_1" data-name="图层 1" xmlns="http://www.w3.org/2000/svg" viewBox="0 0 19.9 13.26">
    <defs>
        <style>.cls-1{fill:#22e8e2;}</style>
    </defs>
    <title>阴</title>
    <path class="cls-1"
          d="M19.1,11.58A2.81,2.81,0,0,1,17,12.67h-1.1v0c.05-2-2.7-4.12-5.07-3.06A3.9,3.9,0,0,0,8.55,7a3.37,3.37,0,0,1,3.37-3.31,3.32,3.32,0,0,1,3.37,2.68A3.06,3.06,0,0,1,16.67,6a3.37,3.37,0,0,1,3.25,3.4A3.27,3.27,0,0,1,19.1,11.58ZM10.56,9.85a3.41,3.41,0,0,1,1.54-.33,3.75,3.75,0,0,1,3.6,3.77,3.66,3.66,0,0,1-.91,2.4,3.13,3.13,0,0,1-2.37,1.2H2.68a2.23,2.23,0,0,1-1.13-.41A3.06,3.06,0,0,1,.08,13.2a1.19,1.19,0,0,1,.07-.27,3.06,3.06,0,0,1,2.93-2.16h0v-.14A3.75,3.75,0,0,1,6.82,6.88a3.7,3.7,0,0,1,3.74,3ZM6.81,7.47a3.45,3.45,0,0,0-3.23,3.66v.11h0A2.61,2.61,0,0,0,.9,12.87a1.05,1.05,0,0,0-.06.24A2.57,2.57,0,0,0,.76,14a2.27,2.27,0,0,0,1.32,2,2.17,2.17,0,0,0,1,.36h9a2.87,2.87,0,0,0,2.15-1.05A3,3,0,0,0,15,13.19a3,3,0,0,0-3-3,3.9,3.9,0,0,0-1.76.53A3.63,3.63,0,0,0,6.81,7.47Z"
          transform="translate(-0.02 -3.64)"/>
</svg>
