<svg id="图层_1" data-name="图层 1" xmlns="http://www.w3.org/2000/svg" viewBox="0 0 19.75 19.32">
    <defs>
        <style>.cls-1{fill:#fff;}</style>
    </defs>
    <title>昼白</title>
    <path d="M3.44,4.09a3.09,3.09,0,1,0,4.73,4h0a3.09,3.09,0,1,0-4.73-4Z" transform="translate(-0.21 -0.36)"/>
    <path d="M8.44,3l-.23-.19a.21.21,0,0,1,0-.29l.71-.84a.2.2,0,0,1,.28,0l.23.19a.19.19,0,0,1,0,.28l-.7.84A.2.2,0,0,1,8.44,3ZM5.54,1.86l-.3,0A.2.2,0,0,1,5,1.7L4.93.61A.2.2,0,0,1,5.11.39l.3,0a.2.2,0,0,1,.21.19l.1,1.09A.2.2,0,0,1,5.54,1.86ZM2.72,3.23l-.19.23a.2.2,0,0,1-.28,0l-.84-.71a.2.2,0,0,1,0-.28l.2-.23a.2.2,0,0,1,.28,0L2.7,3A.2.2,0,0,1,2.72,3.23Zm-1,3,0,.3a.19.19,0,0,1-.18.21l-1.09.1a.2.2,0,0,1-.22-.18l0-.3A.22.22,0,0,1,.4,6.11L1.49,6A.2.2,0,0,1,1.71,6.2ZM3.08,9l.23.2a.19.19,0,0,1,0,.28l-.71.84a.2.2,0,0,1-.28,0l-.23-.19a.2.2,0,0,1,0-.28L2.8,9A.2.2,0,0,1,3.08,9Zm3,1,.3,0a.19.19,0,0,1,.21.18l.1,1.1a.19.19,0,0,1-.18.21l-.3,0A.2.2,0,0,1,6,11.34l-.09-1.1A.19.19,0,0,1,6.05,10ZM8.86,8.65l.2-.23a.2.2,0,0,1,.28,0l.84.7a.2.2,0,0,1,0,.28L10,9.61a.2.2,0,0,1-.28,0l-.84-.71A.19.19,0,0,1,8.86,8.65Zm1-3,0-.3A.2.2,0,0,1,10,5.17l1.1-.09a.19.19,0,0,1,.21.18l0,.3a.19.19,0,0,1-.18.21l-1.1.1A.2.2,0,0,1,9.88,5.69Z"
          transform="translate(-0.21 -0.36)"/>
    <rect x="10.15" y="-2.6" width="0.37" height="25.82" transform="translate(10.34 -4.65) rotate(45.94)"/>
    <rect class="cls-1" x="10.38" y="-2.33" width="0.37" height="25.8" transform="translate(10.6 -4.73) rotate(45.94)"/>
    <path class="cls-1"
          d="M15.12,8.83a5.17,5.17,0,1,1-6.26,6.31,5,5,0,0,0,1.92.29,4.88,4.88,0,0,0,4.65-5.11,4.71,4.71,0,0,0-.28-1.41Z"
          transform="translate(-0.21 -0.36)"/>
</svg>
