<?xml version="1.0" encoding="utf-8"?>
<!-- Generator: Adobe Illustrator 21.0.0, SVG Export Plug-In . SVG Version: 6.00 Build 0)  -->
<svg version="1.1" id="图层_1" xmlns="http://www.w3.org/2000/svg" xmlns:xlink="http://www.w3.org/1999/xlink" x="0px" y="0px"
	 viewBox="0 0 16 16" style="enable-background:new 0 0 16 16;" xml:space="preserve">
<style type="text/css">
	.st0{fill:#FFFFFF;}
</style>
<g>
	<g>
		<rect x="0.2" y="9.2" class="st0" width="15.8" height="0.6"/>
	</g>
	<g>
		<rect x="0.2" y="11.9" class="st0" width="15.8" height="0.6"/>
	</g>
	<g>
		<rect x="0.2" y="14.7" class="st0" width="15.8" height="0.6"/>
	</g>
	<path class="st0" d="M0.9,8.5C0.6,7.9,0.6,7.2,0.9,6.6c0.3-0.5,0.8-0.8,1.4-0.7l0.2,0l0.2-0.3l0-0.2C2.5,4.7,2.9,4.2,3.3,4
		c0.5-0.3,1.3-0.3,2,0.4l0.2,0.1l0.4-0.2l0-0.2C6,2.4,7.6,1.4,9,1.3c1.6-0.1,3.4,0.9,3.9,3.9l0.1,0.3l0.3,0c0.7,0,1.2,0.2,1.6,0.6
		c0.6,0.7,0.6,1.9,0.5,2.4H16C16,7.8,16,6.5,15.3,5.7c-0.4-0.5-1.1-0.8-1.8-0.8C12.8,1.7,10.7,0.6,9,0.7C7.4,0.8,5.7,1.8,5.3,3.6
		C4.6,3.1,3.8,3,3,3.4C2.4,3.8,2,4.5,2,5.2c-0.7,0.1-1.3,0.4-1.6,1C0,6.9-0.1,7.7,0.2,8.5H0.9z"/>
</g>
</svg>
