<svg id="图层_1" data-name="图层 1" xmlns="http://www.w3.org/2000/svg" viewBox="0 0 19.62 19.45"><defs><style>.cls-1{fill:#fff;}</style></defs><title>光强</title><path class="cls-1" d="M4.85,10a5.44,5.44,0,1,0,10.87,0h0A5.44,5.44,0,0,0,4.85,10Z" transform="translate(-0.3 -0.23)"/><path class="cls-1" d="M10.29,2.86H9.76a.35.35,0,0,1-.35-.35V.58A.35.35,0,0,1,9.76.23h.53a.35.35,0,0,1,.35.35V2.51A.35.35,0,0,1,10.29,2.86ZM5.15,4.66,4.78,5a.36.36,0,0,1-.49,0L2.92,3.67a.36.36,0,0,1,0-.49l.38-.37a.34.34,0,0,1,.49,0L5.15,4.17A.34.34,0,0,1,5.15,4.66Zm-2.22,5v.53a.35.35,0,0,1-.35.35H.65a.35.35,0,0,1-.35-.35V9.69a.35.35,0,0,1,.35-.35H2.58A.35.35,0,0,1,2.93,9.69Zm2,5.13.37.38a.36.36,0,0,1,0,.49L3.91,17.06a.36.36,0,0,1-.49,0l-.37-.38a.34.34,0,0,1,0-.49l1.36-1.37A.37.37,0,0,1,4.91,14.82Zm5,2.23h.53a.35.35,0,0,1,.35.35v1.93a.35.35,0,0,1-.35.35H9.93a.35.35,0,0,1-.35-.35V17.4A.35.35,0,0,1,9.93,17.05Zm5.13-2,.38-.37a.34.34,0,0,1,.49,0l1.37,1.36a.37.37,0,0,1,0,.5l-.38.37a.34.34,0,0,1-.49,0l-1.37-1.36A.37.37,0,0,1,15.06,15.07Zm2.23-5V9.52a.35.35,0,0,1,.35-.35h1.93a.35.35,0,0,1,.35.35V10a.35.35,0,0,1-.35.35H17.64A.35.35,0,0,1,17.29,10Zm-2-5.13-.37-.37a.34.34,0,0,1,0-.49L16.3,2.68a.37.37,0,0,1,.5,0l.37.37a.35.35,0,0,1,0,.5L15.81,4.91A.35.35,0,0,1,15.31,4.91Z" transform="translate(-0.3 -0.23)"/><path class="cls-1" d="M13,3.47l-.49-.2a.35.35,0,0,1-.19-.46L13.06,1a.36.36,0,0,1,.46-.19l.49.21a.34.34,0,0,1,.19.45l-.74,1.78A.35.35,0,0,1,13,3.47Zm-5.43-.3-.49.2a.36.36,0,0,1-.46-.19L5.89,1.39A.34.34,0,0,1,6.08.94l.49-.2A.34.34,0,0,1,7,.93l.74,1.78A.36.36,0,0,1,7.57,3.17ZM3.58,7l-.2.49a.36.36,0,0,1-.46.19L1.14,6.89A.35.35,0,0,1,1,6.43l.2-.49a.36.36,0,0,1,.46-.19l1.78.75A.34.34,0,0,1,3.58,7Zm-.15,5.5.21.49a.35.35,0,0,1-.19.45l-1.79.74a.34.34,0,0,1-.45-.19L1,13.45A.35.35,0,0,1,1.19,13L3,12.26A.34.34,0,0,1,3.43,12.45Zm3.79,4,.49.2a.36.36,0,0,1,.19.46l-.75,1.78a.34.34,0,0,1-.45.19l-.49-.2A.36.36,0,0,1,6,18.41l.74-1.78A.36.36,0,0,1,7.22,16.44Zm5.5.14.49-.2a.35.35,0,0,1,.45.19l.74,1.79a.35.35,0,0,1-.19.45l-.49.2a.35.35,0,0,1-.46-.19L12.53,17A.36.36,0,0,1,12.72,16.58Zm4-3.78.2-.49a.35.35,0,0,1,.46-.19l1.78.74a.36.36,0,0,1,.19.46l-.21.49a.34.34,0,0,1-.45.19l-1.78-.75A.33.33,0,0,1,16.71,12.8Zm.14-5.5-.2-.49a.34.34,0,0,1,.19-.45l1.78-.74a.35.35,0,0,1,.46.19l.2.49a.34.34,0,0,1-.19.45l-1.78.74A.36.36,0,0,1,16.85,7.3Z" transform="translate(-0.3 -0.23)"/></svg>