<svg id="图层_1" data-name="图层 1" xmlns="http://www.w3.org/2000/svg" viewBox="0 0 10.16 19.97"><defs><style>.cls-1{fill:#fff;}</style></defs><title>色温</title><path class="cls-1" d="M12.57,10.62v-1h.69a.58.58,0,0,0,0-1.16h-.69V7.14h.69a.57.57,0,0,0,.58-.57A.58.58,0,0,0,13.26,6h-.69V4.65h.69a.58.58,0,1,0,0-1.16h-.69V2.73a2.7,2.7,0,1,0-5.39,0v7.89a5.09,5.09,0,1,0,5.39,0ZM9.88,18.85A3.93,3.93,0,0,1,8,11.46.58.58,0,0,0,8.34,11V2.73a1.54,1.54,0,1,1,3.08,0V11a.57.57,0,0,0,.3.51,3.93,3.93,0,0,1-1.84,7.39Z" transform="translate(-4.8 -0.03)"/><path class="cls-1" d="M10.21,12.41V2.67a.58.58,0,0,0-1.16,0v9.85a2.66,2.66,0,1,0,1.16-.11ZM9.88,17a2,2,0,1,1,2-2A2,2,0,0,1,9.88,17Z" transform="translate(-4.8 -0.03)"/></svg>