<?xml version="1.0" encoding="utf-8"?>
<!-- Generator: Adobe Illustrator 21.0.0, SVG Export Plug-In . SVG Version: 6.00 Build 0)  -->
<svg version="1.1" id="图层_1" xmlns="http://www.w3.org/2000/svg" xmlns:xlink="http://www.w3.org/1999/xlink" x="0px" y="0px"
	 viewBox="0 0 16 16" style="enable-background:new 0 0 16 16;" xml:space="preserve">
<style type="text/css">
	.st0{fill:#22e8e2;}
	.st1{fill:none;stroke:#22e8e2;stroke-width:0.65;stroke-miterlimit:10;}
</style>
<g>
	<path class="st0" d="M3.9,9.3l-2,3.9c-0.1,0.3,0,0.6,0.3,0.7h0c0.3,0.1,0.6-0.1,0.6-0.3L3.9,9.3z"/>
	<path class="st0" d="M7,9.8l-2.5,5.4c-0.1,0.3,0,0.7,0.3,0.8l0,0c0.3,0.1,0.6-0.1,0.7-0.4L7,9.8z"/>
	<path class="st0" d="M10.2,9.8L8.1,14c-0.1,0.3,0,0.6,0.3,0.7l0,0c0.3,0.1,0.6-0.1,0.6-0.3L10.2,9.8z"/>
	<path class="st0" d="M12.7,10.5l-1.8,3.6c-0.1,0.3,0,0.6,0.3,0.6h0c0.3,0.1,0.5-0.1,0.6-0.3L12.7,10.5z"/>
</g>
<path class="st1" d="M1.8,8.5c-1.7-0.8-2.3-4.4,0.8-5c2.5-5.1,7.9-3.3,10.1,0.3c2.6,0.2,3.8,3.4,1.3,4.7C13.7,8.5,1.8,8.5,1.8,8.5z"
	/>
</svg>
