<?xml version="1.0" encoding="utf-8"?>
<!-- Generator: Adobe Illustrator 21.0.0, SVG Export Plug-In . SVG Version: 6.00 Build 0)  -->
<svg version="1.1" id="图层_1" xmlns="http://www.w3.org/2000/svg" xmlns:xlink="http://www.w3.org/1999/xlink" x="0px" y="0px"
	 viewBox="0 0 16 16" style="enable-background:new 0 0 16 16;" xml:space="preserve">
<style type="text/css">
	.st0{fill:#FFFFFF;}
	.st1{fill:none;stroke:#FFFFFF;stroke-width:0.65;stroke-miterlimit:10;}
</style>
<g>
	<g>
		<g>
			<path class="st0" d="M7.4,11.5l-0.5-0.3l0.4-0.1c0,0,0.1,0,0.1-0.1c0,0,0-0.1,0-0.1c0-0.1-0.1-0.1-0.2-0.1l-0.7,0.2l-0.5-0.3
				l0.5-0.3l0.7,0.2h0c0,0,0.1,0,0.1-0.1c0,0,0-0.1,0-0.1c0,0,0,0-0.1-0.1l-0.4-0.1l0.5-0.3c0,0,0,0,0.1-0.1c0,0,0-0.1,0-0.1
				c0-0.1-0.1-0.1-0.2,0l-0.5,0.3l0.1-0.4c0,0,0-0.1,0-0.1c0,0,0,0-0.1,0c-0.1,0-0.1,0-0.1,0.1l-0.1,0.6L6,10.6V10l0.5-0.4
				c0,0,0,0,0-0.1c0,0,0-0.1,0-0.1c0,0-0.1-0.1-0.2,0L6,9.7V9.3c0-0.1-0.1-0.1-0.1-0.1c0,0-0.1,0-0.1,0c0,0,0,0,0,0.1v0.5L5.4,9.4
				c-0.1,0-0.1,0-0.2,0c0,0,0,0.1,0,0.1s0,0.1,0,0.1L5.8,10v0.6l-0.5-0.3L5.1,9.7C5,9.6,5,9.6,4.9,9.6c0,0-0.1,0-0.1,0
				c0,0,0,0.1,0,0.1l0.1,0.4L4.5,9.9c-0.1,0-0.1,0-0.2,0c0,0,0,0.1,0,0.1c0,0,0,0.1,0.1,0.1l0.5,0.3l-0.4,0.1c0,0-0.1,0-0.1,0.1
				c0,0,0,0.1,0,0.1c0,0,0.1,0.1,0.1,0.1h0l0.7-0.2l0.5,0.3l-0.5,0.3l-0.7-0.2c-0.1,0-0.1,0-0.2,0.1c0,0,0,0.1,0,0.1
				c0,0,0,0,0.1,0.1l0.4,0.1l-0.5,0.3c0,0,0,0-0.1,0.1c0,0,0,0.1,0,0.1c0,0,0.1,0.1,0.1,0.1c0,0,0,0,0.1,0l0.5-0.3l-0.1,0.4
				c0,0,0,0.1,0,0.1c0,0,0,0,0.1,0h0C5,12,5,11.9,5,11.9l0.2-0.6L5.7,11v0.6L5.2,12c0,0,0,0,0,0.1c0,0,0,0.1,0,0.1c0,0,0.1,0,0.1,0
				c0,0,0.1,0,0.1,0l0.3-0.3v0.4c0,0.1,0.1,0.1,0.1,0.1s0.1,0,0.1-0.1v-0.4l0.3,0.3c0.1,0,0.1,0,0.2,0c0,0,0-0.1,0-0.1
				c0,0,0-0.1,0-0.1l-0.5-0.4v-0.6l0.5,0.3l0.2,0.6c0,0.1,0.1,0.1,0.1,0.1h0c0,0,0.1,0,0.1,0c0,0,0-0.1,0-0.1l-0.1-0.4l0.5,0.3
				c0,0,0,0,0.1,0c0,0,0.1,0,0.1-0.1C7.5,11.6,7.5,11.5,7.4,11.5L7.4,11.5z M7.4,11.5"/>
		</g>
	</g>
	<g>
		<g>
			<path class="st0" d="M9.9,15l-0.5-0.3l0.4-0.1c0,0,0.1,0,0.1-0.1c0,0,0-0.1,0-0.1c0-0.1-0.1-0.1-0.2-0.1l-0.7,0.2l-0.5-0.3
				l0.5-0.3l0.7,0.2h0c0,0,0.1,0,0.1-0.1c0,0,0-0.1,0-0.1c0,0,0,0-0.1-0.1l-0.4-0.1l0.5-0.3c0,0,0,0,0.1-0.1c0,0,0-0.1,0-0.1
				c0-0.1-0.1-0.1-0.2,0l-0.5,0.3l0.1-0.4c0,0,0-0.1,0-0.1c0,0,0,0-0.1,0c-0.1,0-0.1,0-0.1,0.1L9,13.9l-0.5,0.3v-0.6L9,13.2
				c0,0,0,0,0-0.1S9,13,9,13c0,0-0.1-0.1-0.2,0l-0.3,0.3v-0.4c0-0.1-0.1-0.1-0.1-0.1c0,0-0.1,0-0.1,0c0,0,0,0,0,0.1v0.5L7.9,13
				c-0.1,0-0.1,0-0.2,0c0,0,0,0.1,0,0.1c0,0,0,0.1,0,0.1l0.5,0.4v0.6l-0.5-0.3l-0.1-0.6c0-0.1-0.1-0.1-0.1-0.1c0,0-0.1,0-0.1,0
				c0,0,0,0.1,0,0.1l0.1,0.4l-0.5-0.3c-0.1,0-0.1,0-0.2,0c0,0,0,0.1,0,0.1c0,0,0,0.1,0.1,0.1l0.5,0.3l-0.4,0.1c0,0-0.1,0-0.1,0.1
				c0,0,0,0.1,0,0.1c0,0,0.1,0.1,0.1,0.1h0l0.7-0.2l0.5,0.3l-0.5,0.3l-0.7-0.2c-0.1,0-0.1,0-0.2,0.1c0,0,0,0.1,0,0.1
				c0,0,0,0,0.1,0.1l0.4,0.1L6.8,15c0,0,0,0-0.1,0.1c0,0,0,0.1,0,0.1c0,0,0.1,0.1,0.1,0.1c0,0,0,0,0.1,0L7.4,15l-0.1,0.4
				c0,0,0,0.1,0,0.1c0,0,0,0,0.1,0h0c0.1,0,0.1,0,0.1-0.1l0.2-0.6l0.5-0.3v0.6l-0.5,0.4c0,0,0,0,0,0.1c0,0,0,0.1,0,0.1
				c0,0,0.1,0,0.1,0c0,0,0.1,0,0.1,0l0.3-0.3v0.4c0,0.1,0.1,0.1,0.1,0.1c0.1,0,0.1,0,0.1-0.1v-0.4l0.3,0.3c0.1,0,0.1,0,0.2,0
				c0,0,0-0.1,0-0.1c0,0,0-0.1,0-0.1l-0.5-0.4v-0.6L9,14.8l0.2,0.6c0,0.1,0.1,0.1,0.1,0.1h0c0,0,0.1,0,0.1,0c0,0,0-0.1,0-0.1L9.3,15
				l0.5,0.3c0,0,0,0,0.1,0c0,0,0.1,0,0.1-0.1C10,15.1,10,15.1,9.9,15L9.9,15z M9.9,15"/>
		</g>
	</g>
	<g>
		<g>
			<path class="st0" d="M11.9,11.4l-0.4-0.2l0.3-0.1c0,0,0,0,0.1,0c0,0,0,0,0-0.1c0,0-0.1-0.1-0.1-0.1l-0.5,0.1l-0.4-0.2l0.4-0.2
				l0.5,0.1h0c0,0,0.1,0,0.1-0.1c0,0,0,0,0-0.1c0,0,0,0-0.1,0l-0.3-0.1l0.4-0.2c0,0,0,0,0-0.1c0,0,0,0,0-0.1c0,0-0.1,0-0.1,0
				l-0.4,0.2l0.1-0.3c0,0,0,0,0-0.1c0,0,0,0-0.1,0c0,0-0.1,0-0.1,0.1l-0.1,0.4l-0.4,0.2v-0.4l0.4-0.3c0,0,0,0,0-0.1c0,0,0,0,0-0.1
				c0,0-0.1,0-0.1,0l-0.2,0.2V9.8c0,0,0-0.1-0.1-0.1c0,0,0,0-0.1,0c0,0,0,0,0,0.1v0.3l-0.2-0.2c0,0-0.1,0-0.1,0c0,0,0,0,0,0.1
				s0,0,0,0.1l0.4,0.3v0.4l-0.4-0.2l-0.1-0.4c0,0-0.1-0.1-0.1-0.1c0,0,0,0-0.1,0c0,0,0,0,0,0.1l0.1,0.3l-0.4-0.2c0,0-0.1,0-0.1,0
				c0,0,0,0,0,0.1c0,0,0,0,0,0.1l0.4,0.2l-0.3,0.1c0,0,0,0-0.1,0c0,0,0,0,0,0.1c0,0,0,0.1,0.1,0.1h0l0.5-0.1l0.4,0.2l-0.4,0.2
				L9.7,11c0,0-0.1,0-0.1,0.1c0,0,0,0,0,0.1c0,0,0,0,0.1,0l0.3,0.1l-0.4,0.2c0,0,0,0,0,0.1c0,0,0,0,0,0.1c0,0,0,0,0.1,0c0,0,0,0,0,0
				l0.4-0.2L10,11.7c0,0,0,0,0,0.1c0,0,0,0,0.1,0h0c0,0,0.1,0,0.1-0.1l0.1-0.5l0.4-0.2v0.4l-0.4,0.3c0,0,0,0,0,0.1c0,0,0,0,0,0.1
				c0,0,0,0,0.1,0c0,0,0,0,0.1,0l0.2-0.2V12c0,0,0,0.1,0.1,0.1s0.1,0,0.1-0.1v-0.3l0.2,0.2c0,0,0.1,0,0.1,0c0,0,0,0,0-0.1
				c0,0,0,0,0-0.1l-0.4-0.3V11l0.4,0.2l0.1,0.5c0,0,0,0.1,0.1,0.1h0c0,0,0,0,0.1,0c0,0,0,0,0-0.1l-0.1-0.3l0.4,0.2c0,0,0,0,0,0
				C11.9,11.5,11.9,11.5,11.9,11.4C12,11.5,11.9,11.4,11.9,11.4L11.9,11.4z M11.9,11.4"/>
		</g>
	</g>
	<g>
		<g>
			<path class="st0" d="M5.4,15.3L5,15.1l0.3-0.1c0,0,0,0,0.1,0c0,0,0,0,0-0.1c0,0-0.1-0.1-0.1-0.1L4.8,15l-0.4-0.2l0.4-0.2l0.5,0.1
				h0c0,0,0.1,0,0.1-0.1c0,0,0,0,0-0.1c0,0,0,0-0.1,0L5,14.5l0.4-0.2c0,0,0,0,0-0.1c0,0,0,0,0-0.1c0,0-0.1,0-0.1,0l-0.4,0.2L5,14.1
				c0,0,0,0,0-0.1c0,0,0,0-0.1,0c0,0-0.1,0-0.1,0.1l-0.1,0.4l-0.4,0.2v-0.4L4.7,14c0,0,0,0,0-0.1c0,0,0,0,0-0.1c0,0-0.1,0-0.1,0
				L4.3,14v-0.3c0,0,0-0.1-0.1-0.1c0,0,0,0-0.1,0c0,0,0,0,0,0.1v0.3l-0.2-0.2c0,0-0.1,0-0.1,0c0,0,0,0,0,0.1c0,0,0,0,0,0.1l0.4,0.3
				v0.4l-0.4-0.2L3.7,14c0,0-0.1-0.1-0.1-0.1c0,0,0,0-0.1,0c0,0,0,0,0,0.1l0.1,0.3l-0.4-0.2c0,0-0.1,0-0.1,0c0,0,0,0,0,0.1
				c0,0,0,0,0,0.1l0.4,0.2l-0.3,0.1c0,0,0,0-0.1,0c0,0,0,0,0,0.1c0,0,0,0.1,0.1,0.1h0l0.5-0.1l0.4,0.2L3.7,15l-0.5-0.1
				c0,0-0.1,0-0.1,0.1c0,0,0,0,0,0.1c0,0,0,0,0.1,0l0.3,0.1l-0.4,0.2c0,0,0,0,0,0.1c0,0,0,0,0,0.1c0,0,0,0,0.1,0c0,0,0,0,0,0
				l0.4-0.2l-0.1,0.3c0,0,0,0,0,0.1c0,0,0,0,0.1,0h0c0,0,0.1,0,0.1-0.1l0.1-0.5L4.1,15v0.4l-0.4,0.3c0,0,0,0,0,0.1c0,0,0,0,0,0.1
				c0,0,0,0,0.1,0c0,0,0,0,0.1,0l0.2-0.2v0.3c0,0,0,0.1,0.1,0.1s0.1,0,0.1-0.1v-0.3l0.2,0.2c0,0,0.1,0,0.1,0c0,0,0,0,0-0.1
				c0,0,0,0,0-0.1l-0.4-0.3v-0.4l0.4,0.2l0.1,0.5c0,0,0,0.1,0.1,0.1h0c0,0,0,0,0.1,0c0,0,0,0,0-0.1l-0.1-0.3l0.4,0.2c0,0,0,0,0,0
				C5.3,15.5,5.4,15.4,5.4,15.3C5.4,15.4,5.4,15.3,5.4,15.3L5.4,15.3z M5.4,15.3"/>
		</g>
	</g>
</g>
<path class="st1" d="M2,8.4C0.4,7.6-0.2,4.1,2.8,3.5c2.4-5,7.7-3.2,9.9,0.3C15.2,4,16.4,7.2,14,8.4C13.6,8.4,2,8.4,2,8.4z"/>
</svg>
