<svg id="图层_1" data-name="图层 1" xmlns="http://www.w3.org/2000/svg" viewBox="0 0 16 16.01"><defs><style>.cls-1{fill:#fff;}</style></defs><title>日照-16px</title><path class="cls-1" d="M8,13.26a5.2,5.2,0,1,1,5.2-5.2A5.2,5.2,0,0,1,8,13.26ZM8,3.65A4.41,4.41,0,1,0,12.4,8.06,4.41,4.41,0,0,0,8,3.65Z" transform="translate(0 0.01)"/><path class="cls-1" d="M8,2.33a.45.45,0,0,0,.44-.45V.51a.45.45,0,1,0-.89,0V1.88A.45.45,0,0,0,8,2.33Z" transform="translate(0 0.01)"/><path class="cls-1" d="M8,13.79a.45.45,0,0,0-.45.45v1.38a.45.45,0,0,0,.89,0V14.24A.45.45,0,0,0,8,13.79Z" transform="translate(0 0.01)"/><path class="cls-1" d="M15.54,7.58H14.17a.44.44,0,0,0,0,.89h1.38a.44.44,0,1,0,0-.89Z" transform="translate(0 0.01)"/><path class="cls-1" d="M2.26,8.06a.45.45,0,0,0-.45-.45H.44a.45.45,0,0,0,0,.89H1.81a.44.44,0,0,0,.45-.43Z" transform="translate(0 0.01)"/><path class="cls-1" d="M12.67,4l1-1A.46.46,0,1,0,13,2.4h0l-1,1a.45.45,0,1,0,.54.72L12.62,4Z" transform="translate(0 0.01)"/><path class="cls-1" d="M3.31,12.11l-1,1a.45.45,0,0,0,.63.63l1-1a.45.45,0,0,0-.63-.63Z" transform="translate(0 0.01)"/><path class="cls-1" d="M12.7,12.06a.45.45,0,0,0-.72.54l.09.09,1,1a.45.45,0,1,0,.72-.54l-.09-.09Z" transform="translate(0 0.01)"/><path class="cls-1" d="M3.33,4A.46.46,0,1,0,4,3.35H4l-1-1a.47.47,0,1,0-.63.71Z" transform="translate(0 0.01)"/><path class="cls-1" d="M10.19,2.77a.45.45,0,0,0,.58-.24l.53-1.27a.45.45,0,0,0-.82-.34L10,2.19A.44.44,0,0,0,10.19,2.77Z" transform="translate(0 0.01)"/><path class="cls-1" d="M5.79,13.35a.44.44,0,0,0-.58.23h0l-.54,1.27a.45.45,0,1,0,.82.34L6,13.93A.45.45,0,0,0,5.79,13.35Z" transform="translate(0 0.01)"/><path class="cls-1" d="M15.15,10.52,13.88,10a.45.45,0,1,0-.48.76l.14.06,1.27.53a.45.45,0,0,0,.34-.82Z" transform="translate(0 0.01)"/><path class="cls-1" d="M.86,5.54l1.27.52a.45.45,0,1,0,.48-.76l-.14-.06L1.2,4.72a.45.45,0,0,0-.34.82Z" transform="translate(0 0.01)"/><path class="cls-1" d="M13.29,5.88a.44.44,0,0,0,.57.24h0l1.27-.53a.44.44,0,0,0-.34-.82l-1.27.52a.44.44,0,0,0-.25.57Z" transform="translate(0 0.01)"/><path class="cls-1" d="M2.69,10.24A.45.45,0,0,0,2.11,10l-1.27.52a.44.44,0,1,0,.34.82l1.27-.52a.44.44,0,0,0,.24-.57Z" transform="translate(0 0.01)"/><path class="cls-1" d="M10.78,13.59a.45.45,0,0,0-.82.34l.52,1.27a.45.45,0,0,0,.82-.34Z" transform="translate(0 0.01)"/><path class="cls-1" d="M5.25,2.51a.45.45,0,1,0,.82-.34L5.55.89a.45.45,0,1,0-.82.34Z" transform="translate(0 0.01)"/></svg>