<svg id="图层_1" data-name="图层 1" xmlns="http://www.w3.org/2000/svg" viewBox="0 0 19.45 16.1">
    <defs>
        <style>.cls-1{fill:#22e8e2;}</style>
    </defs>
    <title>晴</title>
    <path class="cls-1"
          d="M11.63,10.09a3.74,3.74,0,0,1,1.67-.36,4,4,0,0,1,3.9,4.08,3.87,3.87,0,0,1-1,2.6,3.4,3.4,0,0,1-2.56,1.31H3.09a2.47,2.47,0,0,1-1.23-.45A3.31,3.31,0,0,1,.28,13.71a1.53,1.53,0,0,1,.07-.29,3.32,3.32,0,0,1,3.17-2.34h0c0-.05,0-.1,0-.15A4.06,4.06,0,0,1,7.58,6.87a4,4,0,0,1,4.05,3.22ZM7.57,7.5c-2.16,0-3.5,2-3.5,4v.12h0a2.83,2.83,0,0,0-2.9,1.77.84.84,0,0,0-.07.26,2.66,2.66,0,0,0-.09.92,2.47,2.47,0,0,0,1.44,2.17,2.36,2.36,0,0,0,1.11.39h9.78A3.09,3.09,0,0,0,15.66,16a3.21,3.21,0,0,0,.81-2.25,3.21,3.21,0,0,0-3.3-3.28,4.14,4.14,0,0,0-1.9.58A3.94,3.94,0,0,0,7.57,7.5Z"
          transform="translate(-0.21 -1.63)"/>
    <path class="cls-1"
          d="M11.77,9.72h0a7.08,7.08,0,0,1,1.67-.36,3.81,3.81,0,0,1,2.74,1.21,4.09,4.09,0,0,0,.35-1.64h0A4,4,0,0,0,9.11,6.71,4,4,0,0,1,11.77,9.72Z"
          transform="translate(-0.21 -1.63)"/>
    <rect class="cls-1" x="11.63" width="0.91" height="1.96" rx="0.26"/>
    <rect class="cls-1" x="7.38" y="3.39" width="0.91" height="1.96" rx="0.26"
          transform="translate(-1 5.2) rotate(-45)"/>
    <rect class="cls-1" x="15.8" y="3.82" width="1.96" height="0.91" rx="0.26"
          transform="translate(1.68 11.49) rotate(-45)"/>
    <rect class="cls-1" x="17.5" y="6.65" width="1.96" height="0.91" rx="0.26"/>
</svg>
