<svg id="图层_1" data-name="图层 1" xmlns="http://www.w3.org/2000/svg" viewBox="0 0 19.76 19.58">
    <defs>
        <style>.cls-1{fill:#22e8e2;}</style>
    </defs>
    <title>太阳</title>
    <path class="cls-1" d="M4.68,10.05a5.47,5.47,0,0,0,10.94,0h0A5.47,5.47,0,0,0,4.68,10Z"
          transform="translate(-0.1 -0.17)"/>
    <path class="cls-1"
          d="M10.15,2.81H9.62a.35.35,0,0,1-.35-.35V.52A.35.35,0,0,1,9.62.17h.53a.34.34,0,0,1,.35.35V2.46A.35.35,0,0,1,10.15,2.81ZM5,4.63,4.61,5a.35.35,0,0,1-.5,0L2.74,3.63a.35.35,0,0,1,0-.5l.37-.37a.35.35,0,0,1,.5,0L5,4.13A.37.37,0,0,1,5,4.63ZM2.74,9.69v.53a.35.35,0,0,1-.35.35H.45a.34.34,0,0,1-.35-.35V9.69a.35.35,0,0,1,.35-.35H2.39A.35.35,0,0,1,2.74,9.69Zm2,5.17.37.37a.35.35,0,0,1,0,.5L3.74,17.1a.35.35,0,0,1-.5,0l-.38-.37a.37.37,0,0,1,0-.5l1.38-1.37A.35.35,0,0,1,4.74,14.86ZM9.8,17.1h.53a.35.35,0,0,1,.35.35V19.4a.35.35,0,0,1-.35.35H9.8a.35.35,0,0,1-.35-.35V17.45A.35.35,0,0,1,9.8,17.1Zm5.16-2,.38-.38a.37.37,0,0,1,.5,0l1.37,1.38a.34.34,0,0,1,0,.49l-.37.38a.35.35,0,0,1-.5,0L15,15.61A.37.37,0,0,1,15,15.11Zm2.25-5.06V9.52a.36.36,0,0,1,.35-.36H19.5a.36.36,0,0,1,.36.36v.53a.36.36,0,0,1-.36.35H17.56A.35.35,0,0,1,17.21,10.05Zm-2-5.17-.38-.38a.34.34,0,0,1,0-.49l1.37-1.38a.35.35,0,0,1,.5,0l.38.38a.37.37,0,0,1,0,.5L15.71,4.88A.34.34,0,0,1,15.22,4.88Z"
          transform="translate(-0.1 -0.17)"/>
</svg>
