<svg id="图层_1" data-name="图层 1" xmlns="http://www.w3.org/2000/svg" viewBox="0 0 19.66 18.27"><defs><style>.cls-1{fill:#fff;}</style></defs><title>时区设置</title><path class="cls-1" d="M18.29,9.07A9.14,9.14,0,0,0,9.19.76a9,9,0,0,0-3.55.72h0A9.11,9.11,0,0,0,2.73,3.44a9,9,0,0,0-2,2.91A9.25,9.25,0,0,0,.07,9.9a9,9,0,0,0,.3,2.32.25.25,0,0,0,0,.07,9.13,9.13,0,0,0,7.47,6.63h.06a6.61,6.61,0,0,0,1,.08h.21a5.74,5.74,0,0,0,1.77-.25.6.6,0,0,0,.35-.33.62.62,0,0,0,0-.48.66.66,0,0,0-.6-.43.57.57,0,0,0-.22,0,4.61,4.61,0,0,1-1.34.18H9a1.66,1.66,0,0,0,.05-.94,2.73,2.73,0,0,0-1.54-1.61L7.14,15A3.17,3.17,0,0,1,6,14.22a3.84,3.84,0,0,1-.51-1.6,1.92,1.92,0,0,0-1-1.38A2.74,2.74,0,0,0,3.2,11,5,5,0,0,0,2,11.09c-.21,0-.4.1-.58.15a7.64,7.64,0,0,1-.11-1.36A7.88,7.88,0,0,1,5,3.25,2.21,2.21,0,0,0,5.15,4,2.34,2.34,0,0,0,7,5.24h.17a2,2,0,0,1,.69.13,1.12,1.12,0,0,1,.75.91,17.52,17.52,0,0,1,.14,4.83.52.52,0,0,0,0,.21.64.64,0,0,0,.64.63.67.67,0,0,0,.45-.18c.11-.12,2.71-2.75,3.4-3.62a3.61,3.61,0,0,1,.25-.3,3.13,3.13,0,0,0,.81-1.38,3.17,3.17,0,0,0-.45-2.2,3.2,3.2,0,0,1-.39-1l.06,0A7.86,7.86,0,0,1,17,9.16a.64.64,0,0,0,.64.58h.06a.6.6,0,0,0,.57-.67ZM3.2,12.24a1.55,1.55,0,0,1,.7.14.66.66,0,0,1,.33.51A5.14,5.14,0,0,0,5,15a4.32,4.32,0,0,0,1.56,1.11h0l.35.18c.72.4.89.66.92.79a.82.82,0,0,1-.15.49,7.78,7.78,0,0,1-5.91-5.12,6,6,0,0,1,1.43-.24Zm9.44-7.35c.62,1.2.35,1.52-.21,2.17l-.27.32c-.35.44-1.26,1.4-2.06,2.23,0-.4,0-.87-.06-1.36C10,7.12,9.83,6.16,9.83,6.13v0A2.42,2.42,0,0,0,8.25,4.2,3.46,3.46,0,0,0,7.14,4,1.1,1.1,0,0,1,6.3,3.5a1.32,1.32,0,0,1,0-.94,7.91,7.91,0,0,1,5.92.07,1.25,1.25,0,0,0-.15.46,3.27,3.27,0,0,0,.53,1.8Z" transform="translate(-0.07 -0.76)"/><path class="cls-1" d="M15,9.64a4.7,4.7,0,1,0,4.69,4.7A4.7,4.7,0,0,0,15,9.64Zm0,8.11a3.43,3.43,0,1,1,3.42-3.42A3.43,3.43,0,0,1,15,17.75Z" transform="translate(-0.07 -0.76)"/><path class="cls-1" d="M15.49,14.51V12.34a.64.64,0,0,0-1.27,0v2.44a.69.69,0,0,0,.18.45l1.15,1.15a.6.6,0,0,0,.45.19.63.63,0,0,0,.63-.64.67.67,0,0,0-.18-.45l-1-1Z" transform="translate(-0.07 -0.76)"/></svg>