<svg id="图层_1" data-name="图层 1" xmlns="http://www.w3.org/2000/svg" viewBox="0 0 19.57 18.05">
    <defs>
        <style>.cls-1{fill:#22e8e2;}</style>
    </defs>
    <title>时间设置</title>
    <path class="cls-1"
          d="M10.07,11.2A1.09,1.09,0,1,0,9,10.11a1.09,1.09,0,0,0,1.09,1.09Zm4.35,0a1.09,1.09,0,1,0-1.09-1.09,1.09,1.09,0,0,0,1.09,1.09Zm-8.7,3.57a1.09,1.09,0,1,0-1.09-1.09,1.09,1.09,0,0,0,1.09,1.09ZM18.77,2.5H15V1.41c0-.3-.33-.54-.73-.54s-.73.24-.73.54V2.5H10.79V1.41a.64.64,0,0,0-.7-.54.64.64,0,0,0-.7.54V2.5H6.56V1.41a.63.63,0,0,0-.7-.54.63.63,0,0,0-.69.54V2.5H1.37A1.09,1.09,0,0,0,.28,3.59V17.84a1.08,1.08,0,0,0,1.09,1.08h17.4a1.08,1.08,0,0,0,1.09-1.08V3.59A1.09,1.09,0,0,0,18.77,2.5Zm-.31,15H1.65V7.74H18.46Zm0-11.16H1.65V3.87H5.17v.8a.64.64,0,0,0,.69.55.64.64,0,0,0,.7-.55v-.8H9.39v.8a.65.65,0,0,0,.7.55.65.65,0,0,0,.7-.55v-.8H13.5v.8c0,.3.32.55.73.55S15,5,15,4.67v-.8h3.5ZM5.72,11.2a1.09,1.09,0,1,0-1.09-1.09A1.09,1.09,0,0,0,5.72,11.2Zm4.35,3.57A1.09,1.09,0,1,0,9,13.68a1.09,1.09,0,0,0,1.09,1.09Zm0,0"
          transform="translate(-0.28 -0.87)"/>
</svg>
