<?xml version="1.0" standalone="no"?><!DOCTYPE svg PUBLIC "-//W3C//DTD SVG 1.1//EN" "http://www.w3.org/Graphics/SVG/1.1/DTD/svg11.dtd"><svg t="1692684066887" class="icon" viewBox="0 0 1024 1024" version="1.1" xmlns="http://www.w3.org/2000/svg" p-id="11674" xmlns:xlink="http://www.w3.org/1999/xlink" width="32" height="32"><path d="M192 1024a64 64 0 0 1-64-64V320H64a64 64 0 0 1 0-128h192V64a64 64 0 0 1 64-64h384a64 64 0 0 1 64 64v128h192a64 64 0 0 1 0 128h-64v640a64 64 0 0 1-64 64z m64-128h512V320H256zM384 192h256V128H384z m192 576V448a64 64 0 0 1 128 0v320a64 64 0 0 1-128 0z m-256 0V448a64 64 0 0 1 128 0v320a64 64 0 0 1-128 0z" fill="#ffffff" p-id="11675"></path></svg>