<svg id="图层_1" data-name="图层 1" xmlns="http://www.w3.org/2000/svg" viewBox="0 0 14.4 19.93"><defs><style>.cls-1{fill:#d31901;}.cls-2{fill:#fff;}</style></defs><title>终点</title><path class="cls-1" d="M9.88,0a7.27,7.27,0,0,1,7.2,7.39C17,11.52,14,16.06,11.21,18.84,9.86,20.21,10,20.33,8.66,19c-2.81-2.81-5.89-7.34-6-11.54A7.26,7.26,0,0,1,9.88,0Z" transform="translate(-2.68 0)"/><path class="cls-2" d="M8.63,10.4l0,.42c-.68.13-1.71.32-3.08.55l-.08-.81L7,10.29,8.62,10ZM5.79,7,5.6,6.13A.52.52,0,0,0,5.77,6a1.31,1.31,0,0,0,.14-.16,6,6,0,0,0,.58-1A14,14,0,0,0,7.14,3.4l.7.28c-.16.4-.37.84-.62,1.32a7.4,7.4,0,0,1-.63,1.08c.4,0,.71,0,1-.07.26-.5.47-.92.61-1.26l.65.3c-.22.48-.52,1-.9,1.73S7.23,8,7,8.34l1.29-.26,0,.8L7.48,9l-.92.18L6,9.32,5.8,8.48a1.43,1.43,0,0,0,.28-.14,1.28,1.28,0,0,0,.18-.2c.2-.27.49-.72.85-1.33l-.92.06A3.14,3.14,0,0,0,5.79,7Zm8.36,1.23-.3.85a14.15,14.15,0,0,1-1.49-.68,7.71,7.71,0,0,1-1.18-.76A9.71,9.71,0,0,1,10,8.38c.34.09.78.23,1.32.41s1,.33,1.27.46l-.26.79c-.3-.14-.71-.3-1.25-.49s-1-.32-1.34-.41l.25-.75A12.07,12.07,0,0,1,8.7,9l-.36-.76A11.51,11.51,0,0,0,10.57,7a7,7,0,0,1-.91-1.13,11.18,11.18,0,0,1-.85,1l-.45-.58A8.66,8.66,0,0,0,9.41,4.94a10.34,10.34,0,0,0,.78-1.57l.7.21c-.11.28-.21.51-.3.7h2.7v.81a8.85,8.85,0,0,1-1.5,2A10,10,0,0,0,14.15,8.18ZM9.22,10c.44.12,1,.31,1.79.56s1.4.47,1.91.66l-.23.82-1.95-.72c-.74-.26-1.32-.44-1.75-.55Zm1.94-3.46a7.14,7.14,0,0,0,1.2-1.48H10.18l-.09.15A5.35,5.35,0,0,0,11.16,6.55Z" transform="translate(-2.68 0)"/></svg>