<svg id="图层_1" data-name="图层 1" xmlns="http://www.w3.org/2000/svg" viewBox="0 0 14.4 19.93"><defs><style>.cls-1{fill:#57990f;}.cls-2{fill:#fff;}</style></defs><title>起点</title><path class="cls-1" d="M9.88,0a7.27,7.27,0,0,1,7.2,7.4C17,11.48,13.94,16,11.2,18.81c-1.34,1.36-1.19,1.48-2.55.12-2.8-2.82-5.88-7.35-6-11.54A7.26,7.26,0,0,1,9.88,0Z" transform="translate(-2.68 0.04)"/><path class="cls-2" d="M11.32,10.9c.88,0,1.81,0,2.81-.08l-.15.81c-1,0-1.9.07-2.75.07l-1.59,0a5,5,0,0,1-1.82-.34,2.1,2.1,0,0,1-1-1A11.57,11.57,0,0,1,6.16,12l-.73-.28a12.65,12.65,0,0,0,.51-1.23A6.2,6.2,0,0,0,6.2,9.31a11.1,11.1,0,0,0,.09-1.54l.78,0c0,.43,0,.88-.07,1.34a2.42,2.42,0,0,0,.7,1.19V7.26H5.82V6.47H7.53V5.3H6.14V4.52H7.53V3.4l.81,0V4.52H9.62V5.3H8.34V6.47H9.89v.79H8.49V8.53H9.78v.79H8.49v1.4a6.57,6.57,0,0,0,1.25.15C10.26,10.89,10.79,10.9,11.32,10.9Zm1.19-4.7V4.71H10V3.9h3.29V7H10.88V8.67a1.47,1.47,0,0,0,0,.42.27.27,0,0,0,.16.17,1.21,1.21,0,0,0,.38.07h.69a1.2,1.2,0,0,0,.53-.12.5.5,0,0,0,.19-.37A5.24,5.24,0,0,0,13,8.1l.78.3a6,6,0,0,1-.11.8,1.79,1.79,0,0,1-.19.57.81.81,0,0,1-.37.28,2.19,2.19,0,0,1-.69.11H11.22a1.6,1.6,0,0,1-.67-.14.71.71,0,0,1-.35-.39,2.24,2.24,0,0,1-.1-.77V6.2Z" transform="translate(-2.68 0.04)"/></svg>